<?xml version="1.0" encoding="UTF-8" standalone="no"?>
<!-- Created with Inkscape (http://www.inkscape.org/) -->

<svg
   version="1.1"
   id="svg1"
   width="222.69016"
   height="78.955757"
   viewBox="0 0 222.69016 78.955758"
   sodipodi:docname="logo.svg"
   inkscape:version="1.3.2 (091e20e, 2023-11-25, custom)"
   xmlns:inkscape="http://www.inkscape.org/namespaces/inkscape"
   xmlns:sodipodi="http://sodipodi.sourceforge.net/DTD/sodipodi-0.dtd"
   xmlns="http://www.w3.org/2000/svg"
   xmlns:svg="http://www.w3.org/2000/svg">
  <defs
     id="defs1" />
  <sodipodi:namedview
     id="namedview1"
     pagecolor="#505050"
     bordercolor="#eeeeee"
     borderopacity="1"
     inkscape:showpageshadow="0"
     inkscape:pageopacity="0"
     inkscape:pagecheckerboard="0"
     inkscape:deskcolor="#505050"
     inkscape:zoom="2.0948389"
     inkscape:cx="162.06497"
     inkscape:cy="61.818596"
     inkscape:window-width="1920"
     inkscape:window-height="1017"
     inkscape:window-x="-8"
     inkscape:window-y="-8"
     inkscape:window-maximized="1"
     inkscape:current-layer="layer-Pr12" />
  <g
     id="layer-Pr12"
     inkscape:groupmode="layer"
     inkscape:label="Camada 1"
     transform="translate(-35.298649,-24.024713)">
    <path
       id="path81"
       d="m 257.3,189.299 -0.02,0.106 c 0.004,-0.045 -0.002,-0.023 0.006,-0.059 0.01,-0.053 0.004,-0.018 0.014,-0.047 z m 2.231,-2.376 0.004,0.045 -0.002,-0.014 z m 0.008,1.98 0.4,1.295 -0.08,-0.254 z m -8.558,-4.165 0.151,0.075 c -0.118,0.231 -0.206,0.484 -0.254,0.742 -0.076,0.336 -0.111,0.626 -0.11,0.943 0,0.306 0.033,0.595 0.092,0.95 l 0.042,0.171 c 0.056,0.174 0.109,0.358 0.176,0.528 0.01,0.022 0.01,0.013 0.01,0.008 l 0.006,0.067 c 0.011,0.091 0.041,0.254 0.076,0.394 0.028,0.11 0.065,0.224 0.112,0.331 l 0.091,0.25 c 0.021,0.066 0.047,0.13 0.081,0.193 0.132,0.25 0.235,0.456 0.397,0.685 0.07,0.136 0.168,0.261 0.293,0.366 l 0.048,0.04 c 0.12,0.121 0.209,0.188 0.286,0.243 0.181,0.167 0.414,0.278 0.672,0.305 0.212,0.053 0.44,0.047 0.662,-0.028 l 0.048,-0.017 c 0.107,-0.032 0.211,-0.081 0.309,-0.146 0.278,-0.186 0.484,-0.356 0.627,-0.514 0.129,0.134 0.259,0.246 0.396,0.345 0.195,0.138 0.387,0.243 0.6,0.337 l 0.075,0.034 c 0.03,0.056 0.07,0.146 0.147,0.276 l 0.051,0.089 c 0.159,0.247 0.261,0.3 0.28,0.37 0.106,0.395 0.414,0.724 0.837,0.837 0.63,0.168 1.279,-0.207 1.447,-0.837 0.106,-0.393 0.02,-0.681 -0.07,-0.928 l -0.18,-0.58 c -0.034,-0.094 -0.13,-0.042 -0.152,-0.104 l 0.081,-0.176 0.328,0.446 c 0.061,0.125 0.142,0.241 0.243,0.342 0.089,0.135 0.195,0.27 0.388,0.396 0.29,0.201 0.666,0.269 1.028,0.155 0.623,-0.197 0.968,-0.862 0.772,-1.485 l -0.38,-1.219 c 0.081,-0.274 0.128,-0.466 0.132,-0.915 10e-4,-0.124 -0.007,-0.209 -0.015,-0.29 l -10e-4,-0.029 c 0.315,0.115 0.678,0.095 0.991,-0.084 l 0.014,-0.008 c 0.234,-0.116 0.431,-0.31 0.547,-0.562 0.124,-0.194 0.192,-0.424 0.184,-0.668 l 0.003,-0.033 c 0.009,-0.135 0.021,-0.286 -0.013,-0.511 -0.018,-0.125 -0.042,-0.242 -0.069,-0.348 -0.095,-0.318 -0.195,-0.577 -0.325,-0.884 l -0.158,-0.291 -0.216,-0.322 c -0.08,-0.11 -0.154,-0.193 -0.221,-0.266 -0.017,-0.019 -0.02,-0.036 -0.035,-0.022 l -0.116,-0.221 c -0.066,-0.126 -0.101,-0.191 -0.174,-0.297 -0.065,-0.096 -0.113,-0.153 -0.2,-0.253 l -0.203,-0.24 c -0.052,-0.06 -0.11,-0.116 -0.175,-0.167 l -0.352,-0.304 c -0.119,-0.096 -0.23,-0.166 -0.337,-0.234 l -0.051,-0.031 c -0.101,-0.078 -0.216,-0.141 -0.343,-0.184 l -0.102,-0.044 c -0.204,-0.09 -0.436,-0.193 -0.714,-0.249 l 0.007,-0.023 c 0.028,-0.101 0.038,-0.173 0.045,-0.24 0.06,-0.192 0.072,-0.401 0.027,-0.606 l -0.002,-0.016 c -0.007,-0.104 -0.017,-0.22 -0.051,-0.37 l -0.046,-0.196 c -0.015,-0.07 -0.036,-0.14 -0.065,-0.209 -0.075,-0.182 -0.14,-0.311 -0.215,-0.439 -0.068,-0.115 -0.133,-0.207 -0.225,-0.338 -0.042,-0.059 -0.09,-0.115 -0.143,-0.167 l -0.094,-0.091 c -0.086,-0.087 -0.175,-0.174 -0.321,-0.274 -0.627,-0.434 -1.09,-0.475 -1.38,-0.49 -0.134,-0.025 -0.275,-0.028 -0.417,-0.003 -0.516,0.089 -0.815,0.159 -1.148,0.366 -0.344,0.215 -0.532,0.456 -0.819,0.884 -0.103,0.153 -0.204,0.295 -0.312,0.412 -0.07,0.076 -0.149,0.144 -0.237,0.2 l -0.046,0.024 c -0.037,0.02 -0.145,0.057 -0.262,0.084 -0.093,-0.006 -0.191,-0.005 -0.289,0.008 l -0.263,-0.029 c -0.167,-0.016 -0.296,-0.029 -0.513,-0.027 -0.074,-0.001 -0.148,0.005 -0.222,0.018 l -0.356,0.065 c -0.098,0.013 -0.195,0.037 -0.291,0.075 -0.34,0.136 -0.454,0.227 -0.645,0.406 l -0.091,0.081 -0.184,0.214 c -0.115,0.131 -0.224,0.252 -0.348,0.48 -0.113,0.215 -0.158,0.356 -0.199,0.499 l -0.034,0.12 c -0.04,0.106 -0.063,0.22 -0.07,0.337 l -0.01,0.126 c -0.015,0.19 -0.03,0.364 0.023,0.67 0.058,0.336 0.138,0.512 0.225,0.698 l 0.046,0.111 c 0.062,0.175 0.161,0.337 0.297,0.47 l 0.092,0.122 c 0.08,0.094 0.154,0.16 0.227,0.226 l 0.014,0.012 c 0.068,0.068 0.145,0.129 0.231,0.181 l 0.015,0.012 c 0.077,0.057 0.16,0.119 0.292,0.19 z m 11.554,1.258 c -0.005,-0.051 0.004,0.022 0.006,0.032 z m -3.997,4.794 -0.002,-0.008 m 0.101,-0.35 -0.004,-0.008 m -10.425,6.109 c 0.106,0.033 0.215,0.061 0.326,0.084 0.604,0.126 1.142,0.055 1.603,-0.126 0.561,-0.22 0.996,-0.604 1.291,-0.981 0.303,-0.388 0.522,-0.867 0.646,-1.379 0.121,-0.496 0.158,-1.031 0.103,-1.545 v -0.005 c -0.053,-0.501 -0.171,-0.94 -0.33,-1.332 -0.155,-0.381 -0.354,-0.722 -0.571,-1.033 -0.26,-0.371 -0.61,-0.721 -1.007,-0.994 -0.38,-0.26 -0.812,-0.458 -1.263,-0.551 0.143,-0.225 0.273,-0.474 0.376,-0.744 0.516,-1.335 0.315,-2.854 -0.765,-3.858 -0.685,-0.638 -1.633,-0.989 -2.596,-1.086 -0.622,-0.062 -1.115,0.048 -1.601,0.156 -0.228,0.05 -0.456,0.101 -0.665,0.114 -0.197,0.011 -0.492,-0.118 -0.805,-0.254 -0.275,-0.12 -0.561,-0.246 -0.878,-0.341 -0.46,-0.137 -0.954,-0.189 -1.431,-0.173 -0.51,0.019 -1.003,0.119 -1.414,0.281 -0.371,0.145 -0.694,0.336 -0.965,0.558 -0.641,0.525 -1.02,1.226 -1.163,1.984 -0.135,0.717 -0.052,1.48 0.222,2.178 l 0.002,0.003 c -0.437,-0.023 -0.883,0.045 -1.307,0.194 -0.394,0.138 -0.772,0.344 -1.109,0.609 -0.293,0.231 -0.598,0.531 -0.872,0.896 v 0.004 c -0.236,0.314 -0.453,0.678 -0.621,1.086 -0.103,0.249 -0.184,0.5 -0.243,0.75 -0.192,0.816 -0.155,1.644 0.106,2.349 v 0.005 c 0.289,0.781 0.845,1.415 1.665,1.753 0.158,0.065 0.318,0.118 0.479,0.155 0.284,0.066 0.578,0.083 0.857,0.063 l 0.092,-0.008 -0.036,0.107 c -0.255,0.793 -0.331,1.664 -0.158,2.446 l 0.093,0.372 c 0.036,0.13 0.078,0.257 0.114,0.337 l 0.04,0.085 c 0.187,0.408 0.307,0.67 0.672,1.042 0.165,0.169 0.354,0.327 0.577,0.462 0.229,0.141 0.491,0.255 0.791,0.332 0.676,0.173 1.288,0.065 1.806,-0.154 0.461,-0.196 0.827,-0.474 1.084,-0.702 0.224,-0.198 0.439,-0.443 0.633,-0.722 0.268,0.618 0.657,1.163 1.152,1.561 0.367,0.295 0.791,0.512 1.267,0.62 0.603,0.139 1.148,0.067 1.616,-0.115 0.576,-0.227 1.022,-0.62 1.307,-0.983 0.395,-0.502 0.657,-1.084 0.798,-1.694 0.137,-0.591 0.159,-1.21 0.082,-1.806"
       style="fill:#670498;fill-opacity:1;fill-rule:evenodd;stroke:none"
       transform="matrix(1.3333333,0,0,-1.3333333,-186.70667,309.10667)" />
    <path
       id="path89"
       d="m 255.508,208.089 c 0.92,1.106 3.669,2.295 5.555,1.174 1.152,-0.684 6.935,-6.409 7.436,-7.492 1.286,-2.781 -1.357,-4.848 -3.448,-7.169 -0.616,-0.682 -0.904,-1.657 -2.087,-1.713 -4.653,-0.219 -1.834,8.364 -2.934,12.042 -0.677,2.263 -2.138,2.672 -4.522,3.158"
       style="fill:#ff6600;fill-opacity:1;fill-rule:evenodd;stroke:none"
       transform="matrix(1.3333333,0,0,-1.3333333,-186.70667,309.10667)" />
    <g
       id="g163">
      <path
         id="path82"
         d="m 282.336,201.387 c -0.037,-0.037 -0.074,-0.037 -0.074,-0.037 0,0 -0.037,0 -0.074,-0.037 h -0.037 c 0,0 -0.037,0 -0.037,-0.037 l -0.037,0.074 v -0.074 c -0.68,-4.073 -1.035,-5.468 2.513,-5.468 -0.037,-0.531 0.049,-2.957 0.15,-5.084 0.069,-1.465 0.122,-4.15 0.888,-5.848 0.454,-1.01 0.838,-1.474 0.92,-1.557 l 0.111,-0.11 0.258,-0.296 0.148,-0.148 c 0.037,-0.037 0.074,-0.073 0.111,-0.073 0,-0.038 0.037,-0.074 0.074,-0.111 0.259,-0.185 0.517,-0.407 0.85,-0.592 0.332,-0.185 0.665,-0.332 1.034,-0.48 l 0.85,-0.333 c 0.111,0 0.148,0 0.222,-0.036 0.074,0 0.148,0 0.222,-0.037 0.147,0 0.258,-0.037 0.406,-0.037 0.939,-0.14 4.684,0.028 5.394,0.738 0,1.167 -0.01,3.191 -0.185,4.323 -0.042,0.273 -0.071,0.51 -0.096,0.677 -0.053,0.357 -3.406,-0.173 -4.116,-0.159 -0.072,10e-4 -0.203,0.019 -0.314,0.047 -0.103,0.026 -0.192,0.065 -0.203,0.063 -0.037,0.038 -0.111,0.038 -0.111,0.074 l -0.037,0.038 c -0.025,0.025 -0.074,0.117 -0.074,0.148 0,0.142 -0.036,0.275 -0.036,0.443 -0.038,1.034 -0.074,2.068 -0.186,2.734 0,2.064 -0.415,3.626 -0.036,6.023 -0.038,0.073 -0.074,0.147 -0.074,0.221 0.84,0 3.046,0.015 3.214,0.296 0.037,0.258 0.407,4.323 0.407,4.655 0,0 0.043,0.143 -0.183,0.171 -1.162,0.166 -2.557,-0.171 -3.697,-0.171 0,0.074 -0.037,0.111 -0.037,0.148 h 0.037 c -0.164,0.993 -0.101,3.545 -0.147,3.695 l 0.145,0.474 -0.037,0.037 c -2.353,0.325 -5.586,0.698 -5.651,-1.152 -0.042,-1.189 -1.114,-3.202 -2.475,-3.202"
         style="fill:#ffffff;fill-opacity:1;fill-rule:nonzero;stroke:none"
         transform="matrix(1.3333333,0,0,-1.3333333,-186.70667,309.10667)" />
      <path
         id="path83"
         d="m 333.329,192.704 c 0,0.074 -0.037,0.148 -0.037,0.259 0,0.074 -0.037,0.185 -0.037,0.296 l -0.111,0.813 c -0.111,0.628 -0.222,1.366 -0.443,2.105 l -0.074,0.148 v 0.074 l -0.037,0.037 c -0.037,0.111 -0.074,0.222 -0.074,0.296 l -0.074,0.148 c 0,0.036 -0.037,0.073 -0.037,0.147 l -0.111,0.258 c -0.037,0.074 -0.074,0.186 -0.148,0.259 l -0.11,0.259 c 0,0.074 -0.038,0.111 -0.074,0.148 0,0.037 -0.038,0.074 -0.074,0.111 l -0.111,0.258 -0.296,0.444 c -0.073,0.147 -0.185,0.259 -0.259,0.369 l -0.074,0.111 c 0,0.037 -0.036,0.037 -0.036,0.074 -0.074,0.037 -0.111,0.111 -0.148,0.148 -0.037,0.037 -0.073,0.073 -0.073,0.147 -0.038,0.038 -0.074,0.074 -0.111,0.074 l -0.259,0.185 c 0,0 -0.037,0 -0.037,0.037 -0.037,0 -0.037,0.037 -0.074,0.037 l -0.111,0.074 -0.259,0.185 c -0.074,0.074 -0.148,0.148 -0.258,0.184 l -0.111,0.111 c -0.037,0 -0.074,0.037 -0.148,0.074 l -0.222,0.148 c -0.11,0.037 -0.184,0.111 -0.258,0.148 -0.111,0.037 -0.185,0.074 -0.259,0.074 l 0.074,0.037 -0.406,0.147 -0.296,0.148 c -0.037,0 -0.074,0.037 -0.148,0.074 -0.073,0 -0.111,0.037 -0.184,0.037 -0.037,0.037 -0.111,0.037 -0.185,0.074 -0.037,0.037 -0.111,0.037 -0.185,0.074 -0.111,0.037 -0.259,-0.074 -0.407,-0.037 l -0.406,0.111 c -0.148,0.037 -0.298,0.055 -0.406,0.074 -3.204,0.573 -4.581,0.294 -7.601,-0.412 -10.365,-2.418 -3.388,-27.177 -2.966,-27.668 0.295,-0.038 4.951,-0.148 5.284,-0.148 0.471,-0.177 0.069,7.261 0.036,7.943 l 0.037,-0.036 c -0.037,0.184 -0.037,0.442 -0.037,0.701 0.222,-0.111 0.518,-0.222 0.813,-0.332 0.369,-0.148 0.776,-0.259 1.219,-0.369 0.443,-0.112 0.924,-0.186 1.441,-0.222 0.48,-0.037 0.961,-0.037 1.442,-0.037 0.516,0.037 0.997,0.111 1.44,0.221 l 0.333,0.074 c 0.074,0.038 0.111,0.038 0.185,0.038 l 0.147,0.073 c 0.037,0 0.111,0.037 0.148,0.037 l 0.148,0.074 0.295,0.111 c 0.074,0 0.185,0.073 0.259,0.11 l 0.222,0.111 c 0.147,0.037 0.259,0.111 0.369,0.185 l -0.036,-0.074 c 0.036,0.037 0.073,0.074 0.11,0.074 0.037,0.037 0.074,0.074 0.111,0.074 l 0.258,0.185 0.259,0.185 0.259,0.184 0.259,0.222 c 0.111,0.074 0.184,0.184 0.258,0.258 l 0.148,0.112 0.111,0.147 0.258,0.259 c 0.296,0.407 0.592,0.812 0.813,1.219 l 0.185,0.333 0.074,0.148 0.074,0.184 0.148,0.296 0.11,0.332 0.074,0.185 0.037,0.148 0.111,0.295 0.074,0.333 c 0,0.037 0.037,0.111 0.037,0.148 l 0.037,0.074 v 0.073 c 0.111,0.407 0.148,0.813 0.222,1.183 v 0.259 c 0.036,0.037 0.036,0.074 0.036,0.148 v 0.11 c 0,0.185 0.038,0.333 0.038,0.48 0,1.85 0.065,1.24 -0.185,2.993 z m -7.824,-2.952 c -1.089,-1.134 -2.123,-2.509 -3.657,-3.046 -0.865,1.456 -1.102,2.825 -1.521,4.433 -0.426,1.536 -0.923,2.918 -0.867,4.539 1.876,0.163 2.904,-0.261 4.658,-0.748 1.715,-0.447 3.064,-0.706 4.66,-1.558 -0.976,-1.466 -2.041,-2.404 -3.273,-3.62"
         style="fill:#ffffff;fill-opacity:1;fill-rule:nonzero;stroke:none"
         transform="matrix(1.3333333,0,0,-1.3333333,-186.70667,309.10667)" />
      <path
         id="path84"
         d="m 177.642,181.221 c 11.444,1.19 13.584,19.525 13.536,20.17 0.38,2.959 -2.105,3.675 -4.503,3.25 -1.703,0.035 -8.387,-12.796 -9.493,-14.197 -1.493,0.91 -3.911,13.689 -6.566,13.853 -8.838,0.093 -1.995,-24.749 7.026,-23.076"
         style="fill:#ffffff;fill-opacity:1;fill-rule:nonzero;stroke:none"
         transform="matrix(1.3333333,0,0,-1.3333333,-186.70667,309.10667)" />
      <path
         id="path85"
         d="m 210.926,197.803 -0.074,0.148 -0.147,0.295 c -0.111,0.148 -0.185,0.296 -0.295,0.333 0.036,0 -0.038,0.111 -0.112,0.222 -0.262,0.525 -1.539,1.462 -2.068,1.847 l -0.296,0.148 -0.333,0.185 -0.333,0.147 -0.147,0.074 c -0.037,0 -0.074,0 -0.111,0.037 0,0 -0.037,0 -0.074,0.037 -0.48,0.185 -0.998,0.333 -1.515,0.444 -0.517,0.111 -1.034,0.184 -1.552,0.221 -0.517,0.037 -0.997,0.074 -1.478,0.074 h -0.332 c -0.148,0 -0.296,-0.037 -0.406,-0.037 -3.988,0 -8.277,-4.049 -8.277,-7.685 l -0.074,-0.221 c 0,-0.074 -0.037,-0.148 -0.037,-0.222 -0.006,-0.023 -0.258,-1.957 -0.258,-1.958 0,-0.074 0,-0.148 0.037,-0.222 v -0.185 l 0.074,-0.443 v 0.222 l 0.11,-0.444 c 0,-0.074 0,-0.185 0.037,-0.295 0,-0.112 0.037,-0.222 0.074,-0.333 0.074,-0.481 0.222,-1.071 0.407,-1.663 0.111,-0.295 0.185,-0.591 0.333,-0.886 0.036,-0.148 0.11,-0.259 0.184,-0.407 0,-0.074 0.037,-0.111 0.074,-0.185 l 0.111,-0.184 c 0.175,-0.351 0.868,-1.6 0.886,-1.626 l 0.185,-0.222 c 0,-0.037 0.037,-0.074 0.074,-0.111 l 0.111,-0.111 c 0.037,-0.11 0.111,-0.184 0.185,-0.258 0.074,-0.074 0.147,-0.185 0.258,-0.259 0.333,-0.332 0.702,-0.702 1.146,-0.997 0.443,-0.333 0.923,-0.591 1.404,-0.85 0.48,-0.222 0.998,-0.407 1.478,-0.555 l 0.369,-0.111 c 0.038,0 0.112,0 0.148,-0.036 0.074,0 0.111,0 0.185,-0.038 l 0.628,-0.11 c 1.794,-0.326 3.69,0.008 5.505,0.295 0.258,0.037 1.331,0.37 1.552,0.407 0.26,0.055 1.359,0.369 1.441,0.369 l 0.554,0.185 0.555,0.111 0.849,0.517 c -0.185,0.998 -0.764,2.075 -1.182,3.067 l -0.407,0.961 c -0.072,0.149 -1.591,-0.174 -2.401,-0.444 l -0.296,-0.148 c -0.034,-0.011 -2.653,-0.48 -2.734,-0.48 -0.111,0 -0.222,-0.036 -0.369,-0.036 h -0.185 c -0.074,0 -0.148,-0.038 -0.222,-0.038 h -1.182 c -0.074,0.038 -0.111,0.038 -0.148,0.038 h -0.111 c -0.073,0 -0.185,0 -0.259,0.036 -0.074,0 -0.147,0 -0.221,0.037 -0.185,0 -0.333,0.037 -0.481,0.074 -0.295,0.074 -0.554,0.185 -0.812,0.295 -0.222,0.112 -0.555,0.222 -0.702,0.333 l -0.444,0.369 c 0,0.038 -0.037,0.074 -0.074,0.112 l -0.036,0.036 c 0,0.037 0,0.037 -0.038,0.037 0,0.037 -0.036,0.074 -0.036,0.074 -0.038,0.037 -0.038,0.074 -0.038,0.074 0,0.037 -0.036,0.074 -0.074,0.111 0,0 0,0.037 -0.036,0.037 -0.591,0.813 -0.555,1.035 -0.555,1.035 0.259,-0.074 1.294,-0.481 1.59,-0.518 0.074,-0.037 0.148,-0.074 0.221,-0.074 l 0.258,-0.037 0.259,-0.074 h 0.148 l 0.111,-0.036 c 0.184,0 0.369,-0.038 0.517,-0.038 0.037,-0.036 0.111,-0.036 0.148,-0.036 h 0.407 l 0.258,-0.038 h 1.182 c 0.185,0.038 0.333,0.038 0.481,0.038 0.853,0.047 2.119,0.48 2.66,0.48 0.074,0.037 0.11,0.074 0.184,0.074 0.148,0.074 0.296,0.111 0.444,0.148 1.159,0.386 2.666,1.051 3.326,2.106 0.11,0.148 0.11,0.074 0.221,0.222 0.074,0.184 0.147,0.368 0.185,0.554 0.222,0.738 0.332,1.551 0.332,2.18 0.076,1.264 -0.355,2.669 -0.924,3.805 z m -4.877,-3.177 c 0,-0.111 -0.185,-0.554 -0.221,-0.628 -0.037,-0.074 0.036,-0.111 0,-0.111 l -0.111,-0.074 c -0.009,-0.003 -1.04,-0.613 -1.219,-0.702 l -0.185,-0.074 c -0.037,-0.037 -0.074,0.037 -0.111,0.037 L 204.054,193 c -0.074,0 -0.111,-0.037 -0.185,-0.037 l -0.184,-0.074 -0.222,-0.074 c -0.037,0 -0.111,-0.037 -0.184,-0.037 -0.072,-0.018 -1.386,-0.074 -1.516,-0.074 -0.037,0 -0.11,0.037 -0.147,0.037 h -0.111 c -0.333,0.074 -0.776,0.037 -1.219,0.222 -0.407,0.148 -0.998,0.406 -1.33,0.702 0.384,1.21 1.082,1.693 1.478,2.032 l 0.148,0.074 0.074,0.074 c 0.036,0 0.073,0.037 0.11,0.037 l 0.111,0.073 c 0.074,0 0.11,0.038 0.147,0.038 l 0.148,0.074 h 0.074 c 0.037,0 0.037,0.036 0.074,0.036 l 0.739,0.112 h 0.998 l 0.96,-0.112 0.776,-0.221 0.444,-0.222 c 0.11,-0.074 0.184,-0.111 0.222,-0.184 0.11,0.036 0.147,0 0.221,-0.038 0.037,0 0.074,-0.036 0.111,-0.11 0.073,-0.074 0.111,-0.148 0.221,-0.222 h -0.037 v -0.037 c 0.037,-0.037 0.037,-0.037 0.037,-0.074 l 0.037,-0.037 v -0.074 c 0.037,-0.074 0.037,-0.184 0,-0.258"
         style="fill:#ffffff;fill-opacity:1;fill-rule:nonzero;stroke:none"
         transform="matrix(1.3333333,0,0,-1.3333333,-186.70667,309.10667)" />
      <path
         id="path86"
         d="m 212.058,201.387 c -0.037,-0.037 -0.074,-0.037 -0.074,-0.037 0,0 -0.037,0 -0.074,-0.037 h -0.037 c 0,0 -0.037,0 -0.037,-0.037 l -0.037,0.074 v -0.074 c -0.679,-4.073 -1.035,-5.468 2.513,-5.468 -0.037,-0.531 0.05,-2.957 0.15,-5.084 0.069,-1.465 0.122,-4.15 0.888,-5.848 0.454,-1.01 0.838,-1.474 0.92,-1.557 l 0.11,-0.11 0.259,-0.296 0.148,-0.148 c 0.037,-0.037 0.074,-0.073 0.111,-0.073 0,-0.038 0.037,-0.074 0.074,-0.111 0.259,-0.185 0.517,-0.407 0.85,-0.592 0.332,-0.185 0.664,-0.332 1.034,-0.48 l 0.85,-0.333 c 0.111,0 0.148,0 0.222,-0.036 0.074,0 0.148,0 0.222,-0.037 0.147,0 0.258,-0.037 0.406,-0.037 0.939,-0.14 4.684,0.028 5.395,0.738 0,1.167 -0.011,3.191 -0.186,4.323 -0.042,0.273 -0.071,0.51 -0.096,0.677 -0.053,0.357 -3.406,-0.173 -4.115,-0.159 -0.073,10e-4 -0.204,0.019 -0.315,0.047 -0.103,0.026 -0.192,0.065 -0.203,0.063 -0.036,0.038 -0.11,0.038 -0.11,0.074 l -0.038,0.038 c -0.025,0.025 -0.074,0.117 -0.074,0.148 0,0.142 -0.036,0.275 -0.036,0.443 -0.037,1.034 -0.074,2.068 -0.185,2.734 0,2.064 -0.416,3.626 -0.037,6.023 -0.037,0.073 -0.074,0.147 -0.074,0.221 0.841,0 3.046,0.015 3.215,0.296 0.037,0.258 0.406,4.323 0.406,4.655 0,0 0.043,0.143 -0.183,0.171 -1.162,0.166 -2.557,-0.171 -3.697,-0.171 0,0.074 -0.037,0.111 -0.037,0.148 h 0.037 c -0.163,0.993 -0.101,3.545 -0.147,3.695 l 0.145,0.474 -0.037,0.037 c -2.353,0.325 -5.586,0.698 -5.651,-1.152 -0.041,-1.189 -1.113,-3.202 -2.475,-3.202"
         style="fill:#ffffff;fill-opacity:1;fill-rule:nonzero;stroke:none"
         transform="matrix(1.3333333,0,0,-1.3333333,-186.70667,309.10667)" />
      <path
         id="path87"
         d="m 269.366,197.359 c 0,-0.074 -0.038,-0.148 -0.074,-0.221 0,-0.037 -0.038,-0.111 -0.038,-0.185 l -0.147,-0.48 c 0,-0.111 -0.037,-0.222 0,-0.296 -0.085,-0.253 -0.036,-2.11 0,-2.253 l 0.074,-0.259 c 0,-0.111 0.037,-0.185 0.073,-0.296 0,-0.037 0.038,-0.147 0.074,-0.258 l 0.112,-0.296 c 0.184,-0.443 0.369,-0.887 0.664,-1.293 1.325,-1.471 1.61,-1.43 3.215,-2.032 1.385,-0.693 6.548,-1.497 4.36,-2.808 l -0.222,-0.111 h -0.037 l -0.037,-0.037 h -0.11 v -0.037 h -0.186 c -0.184,-0.037 -0.332,-0.037 -0.517,-0.037 -1.283,0 -4.381,0.914 -5.431,0.739 -0.037,-0.148 -0.369,-0.998 -0.961,-1.995 -1.458,-2.626 -0.156,-2.64 1.5,-3.229 1.616,-0.575 3.652,-1.056 5.779,-0.725 0.146,0.023 0.258,0 0.406,0.038 0.037,0 0.111,0 0.185,0.036 0.074,0 0.111,0 0.185,0.038 h 0.111 l 0.111,0.036 c 0.036,0 0.11,0.038 0.184,0.038 l 0.222,0.073 0.222,0.074 c 0.554,0.184 1.108,0.443 1.552,0.702 1.032,0.752 1.767,1.64 2.253,2.808 0,0.074 0,0.111 0.037,0.185 l 0.074,0.148 c 0.037,0.147 0.074,0.258 0.074,0.369 l 0.074,0.185 v 0.074 c 0.037,0.037 0.037,0.073 0.037,0.111 l 0.074,0.369 c 0,0.111 0.036,0.259 0.036,0.369 0,0.148 0.038,0.296 0.038,0.444 v 0.813 c -0.038,0.074 -0.038,0.148 -0.038,0.222 0,0.073 -0.036,0.147 -0.036,0.221 0,0.074 0,0.148 -0.037,0.222 0,0.074 -0.037,0.148 -0.037,0.222 0,0.074 -0.037,0.11 -0.074,0.184 0,0.074 -0.037,0.148 -0.037,0.221 -0.037,0.074 -0.037,0.148 -0.074,0.186 0,0.036 -0.037,0 -0.037,0.036 l -0.037,0.074 c -0.185,0.555 -0.517,1.072 -0.886,1.516 -2.543,2.793 -4.063,1.676 -6.134,2.918 l -0.554,0.222 c -2.233,1.675 1.054,2.623 2.697,1.811 0.259,-0.074 0.555,-0.222 0.85,-0.333 0.296,-0.148 0.628,-0.259 0.96,-0.296 0.112,-0.148 0.185,0 0.259,-0.184 l 0.074,0.036 c 0,0 0.037,-0.036 0.111,0.074 0.037,0.111 0.148,0.037 0.222,0.222 0.184,0.369 0.443,0.85 0.665,1.367 0.148,0.258 0.258,0.517 0.369,0.776 0.111,0.296 0.222,0.554 0.259,0.813 0.607,1.971 -1.974,2.406 -3.547,2.734 -0.407,0.111 -0.85,0.185 -1.293,0.259 -0.259,0 -0.481,0.037 -0.739,0.037 h -0.776 c -0.037,0 -0.037,0.037 0,0.037 -0.807,-0.071 -2.196,-0.25 -2.882,-0.555 l -0.148,-0.074 -0.148,-0.073 -0.185,-0.111 c -0.036,0 -0.11,-0.037 -0.148,-0.074 -0.074,0 -0.148,-0.037 -0.184,-0.074 l -0.148,-0.111 c -0.11,-0.074 -0.221,-0.148 -0.332,-0.258 -1.304,-0.978 -1.508,-1.826 -1.921,-3.068"
         style="fill:#ffffff;fill-opacity:1;fill-rule:nonzero;stroke:none"
         transform="matrix(1.3333333,0,0,-1.3333333,-186.70667,309.10667)" />
      <path
         id="path88"
         d="m 314.673,190.413 v 1.441 c 0,0.111 -0.037,0.222 -0.037,0.333 v 0.333 c -0.037,0.073 -0.037,0.184 -0.037,0.295 0,0.074 -0.037,0.185 -0.037,0.259 0,0.111 0,0.185 -0.037,0.295 0,0.148 -0.037,0.296 -0.037,0.444 -0.037,0.074 -0.037,0.147 -0.037,0.221 -0.037,0.038 -0.037,0.111 -0.037,0.148 l 0.037,-0.037 -0.111,0.517 c 0,0 0,0.038 -0.036,0.074 v 0.074 c 0,0.038 -0.038,0.074 -0.038,0.148 l -0.074,0.296 c 0,0.036 -0.036,0.074 -0.036,0.148 l -0.222,0.443 c -0.037,0.074 -0.074,0.11 -0.074,0.184 -0.037,0.038 -0.074,0.112 -0.111,0.186 -0.185,0.443 -0.444,0.96 -0.739,1.44 -0.332,0.481 -0.702,0.998 -1.108,1.441 -0.444,0.443 -0.924,0.813 -1.442,1.145 -0.48,0.333 -0.997,0.592 -1.514,0.777 -2.24,0.86 -4.754,0.834 -6.983,0 -0.074,0 -0.185,-0.037 -0.259,-0.074 l -0.148,-0.074 c -0.074,0 -0.11,-0.037 -0.148,-0.037 -0.812,-0.333 -1.773,-0.85 -2.586,-1.515 -0.406,-0.333 -0.776,-0.739 -1.108,-1.108 l -0.444,-0.592 -0.074,-0.147 -0.11,-0.148 -0.185,-0.259 c -1.321,-1.92 -1.541,-5.753 -1.22,-8.165 0,-3.7 3.932,-6.405 7.981,-7.242 3.077,-0.945 6.848,0.64 8.831,2.623 0.037,0.074 0.111,0.148 0.185,0.222 0,0.037 0.036,0.073 0.036,0.073 0,0.038 0.038,0.038 0.038,0.074 l 0.11,0.111 c 0.037,0.111 0.111,0.185 0.185,0.296 0.074,0.074 0.111,0.185 0.185,0.296 l 0.184,0.332 0.111,0.185 c 0,0 0,0.037 0.037,0.074 0,0.037 0.037,0.074 0.037,0.074 0.037,0.148 0.111,0.258 0.148,0.37 l 0.111,0.184 c 0,0.074 0.037,0.148 0.074,0.222 0,0.036 0.036,0.11 0.074,0.184 0,0.074 0.036,0.148 0.074,0.185 0,0.074 0.036,0.148 0.036,0.222 0.038,0.037 0.038,0.074 0.038,0.111 0.036,0 0.036,0.036 0.036,0.074 l 0.112,0.406 0.11,0.443 c 0,0.037 0,0.111 0.037,0.185 0,0.074 0,0.148 0.037,0.222 0,0.111 0.037,0.258 0.074,0.406 0,0.259 0.037,0.517 0.074,0.813 0,0.111 0,0.259 0.037,0.369 z m -14.22,-1.537 c 0.565,1.711 1.84,3.607 2.773,5.201 0.601,1.026 1.032,1.641 1.858,2.507 2.637,-2.318 3.771,-5.227 4.633,-8.555 0.08,-0.31 -0.969,-0.4 -1.294,-0.469 -2.083,-0.439 -5.467,-0.216 -7.448,0.593 -0.624,0.254 -0.579,0.126 -0.522,0.723"
         style="fill:#ffffff;fill-opacity:1;fill-rule:nonzero;stroke:none"
         transform="matrix(1.3333333,0,0,-1.3333333,-186.70667,309.10667)" />
      <path
         id="path90"
         d="m 179.3,159.274 h -0.245 c -0.466,0 -0.736,0.049 -0.809,0.122 -0.049,0.049 -0.099,0.074 -0.123,0.074 -0.074,0 -0.123,-0.123 -0.123,-0.393 0,-0.196 0,-0.367 0.025,-0.515 0.024,-0.319 0.073,-0.515 0.147,-0.589 0.074,-0.098 0.245,-0.22 0.539,-0.343 0.295,-0.147 0.565,-0.221 0.786,-0.221 0.27,0 0.588,0.147 0.932,0.466 0.245,0.246 0.368,0.466 0.368,0.662 0,0.221 -0.123,0.393 -0.368,0.54 -0.27,0.123 -0.614,0.197 -1.055,0.197 z m 0.761,2.109 c -0.122,0.123 -0.27,0.197 -0.491,0.197 -0.319,0 -0.662,-0.123 -0.981,-0.393 -0.343,-0.27 -0.54,-0.54 -0.564,-0.859 0,-0.024 0,-0.073 0,-0.122 C 178,160.157 178,160.133 178,160.108 c 0,-0.123 0.074,-0.197 0.246,-0.197 0.024,0 0.098,0 0.171,0.025 0.074,0 0.148,0 0.221,0 0.417,0.024 0.736,0.098 0.907,0.197 0.173,0.097 0.32,0.294 0.443,0.588 0.171,0.319 0.195,0.539 0.073,0.662 z m -1.129,1.153 c 0.27,0.074 0.467,0.098 0.589,0.098 0.736,0 1.178,-0.392 1.35,-1.153 0.024,-0.073 0.024,-0.171 0.024,-0.294 0,-0.245 -0.073,-0.49 -0.221,-0.711 l -0.319,-0.516 0.344,-0.122 c 0.564,-0.221 0.834,-0.663 0.834,-1.35 0,-0.221 -0.049,-0.416 -0.122,-0.539 -0.074,-0.123 -0.27,-0.319 -0.54,-0.54 -0.565,-0.49 -1.031,-0.736 -1.399,-0.736 -0.073,0 -0.221,0.025 -0.417,0.049 -0.22,0.025 -0.515,0.074 -0.908,0.123 -0.196,0 -0.319,0.024 -0.392,0.098 -0.074,0.074 -0.171,0.246 -0.245,0.515 -0.098,0.344 -0.172,1.203 -0.246,2.576 -0.025,0.27 -0.025,0.613 -0.025,1.031 0,0.785 0.124,1.177 0.369,1.177 0.025,0 0.098,-0.024 0.22,-0.049 0.172,-0.074 0.295,-0.049 0.418,0.073 0.073,0.074 0.319,0.173 0.686,0.27"
         style="fill:#ffffff;fill-opacity:1;fill-rule:nonzero;stroke:none"
         transform="matrix(1.3333333,0,0,-1.3333333,-186.70667,309.10667)" />
      <path
         id="path91"
         d="m 190.253,161.653 c -0.147,0 -0.221,0.049 -0.221,0.172 0,0.123 -0.146,0.172 -0.416,0.172 -0.442,0 -0.835,-0.098 -1.153,-0.319 -0.589,-0.368 -0.884,-0.981 -0.884,-1.84 0,-0.442 0.074,-0.859 0.246,-1.251 0.147,-0.368 0.392,-0.638 0.711,-0.834 0.319,-0.197 0.662,-0.295 1.031,-0.295 0.858,0 1.422,0.368 1.717,1.079 0.073,0.148 0.098,0.344 0.098,0.614 0,0.539 -0.123,1.104 -0.368,1.668 -0.245,0.564 -0.491,0.834 -0.761,0.834 z m -1.839,0.981 c 0.588,0.221 0.956,0.319 1.128,0.319 0.221,0 0.564,-0.147 1.03,-0.441 0.981,-0.638 1.472,-1.693 1.472,-3.14 0,-0.687 -0.073,-1.178 -0.196,-1.497 -0.147,-0.319 -0.417,-0.588 -0.809,-0.809 -0.368,-0.221 -0.884,-0.319 -1.497,-0.319 -0.589,0 -1.128,0.098 -1.619,0.294 -0.515,0.197 -0.786,0.442 -0.859,0.736 -0.024,0.123 -0.073,0.344 -0.147,0.638 -0.074,0.295 -0.147,0.564 -0.172,0.81 -0.049,0.245 -0.073,0.514 -0.073,0.809 0,1.276 0.589,2.134 1.742,2.6"
         style="fill:#ffffff;fill-opacity:1;fill-rule:nonzero;stroke:none"
         transform="matrix(1.3333333,0,0,-1.3333333,-186.70667,309.10667)" />
      <path
         id="path92"
         d="m 197.282,162.831 c 0.098,0.098 0.172,0.147 0.246,0.147 0.269,0 0.465,-0.613 0.588,-1.865 0.123,-1.496 0.515,-2.526 1.177,-3.066 0.246,-0.196 0.466,-0.294 0.638,-0.294 0.246,0 0.516,0.22 0.81,0.662 0.294,0.441 0.441,0.957 0.441,1.57 v 0.294 c -0.024,0.81 -0.098,1.252 -0.196,1.35 -0.123,0.122 -0.171,0.27 -0.171,0.465 0,0.221 0.073,0.369 0.196,0.442 0.147,0.074 0.343,0 0.564,-0.27 0.294,-0.294 0.442,-0.956 0.442,-2.011 0,-0.834 -0.098,-1.472 -0.319,-1.914 -0.197,-0.466 -0.491,-0.858 -0.859,-1.177 -0.368,-0.319 -0.736,-0.491 -1.055,-0.491 -0.319,0 -0.662,0.196 -1.079,0.589 -0.418,0.392 -0.785,0.908 -1.104,1.521 -0.197,0.343 -0.319,0.662 -0.368,0.956 -0.05,0.295 -0.074,0.786 -0.074,1.448 0,1.055 0.049,1.595 0.123,1.644"
         style="fill:#ffffff;fill-opacity:1;fill-rule:nonzero;stroke:none"
         transform="matrix(1.3333333,0,0,-1.3333333,-186.70667,309.10667)" />
      <path
         id="path93"
         d="m 207.328,162.463 c 0.074,0.171 0.564,0.245 1.521,0.245 h 0.687 c 1.006,-0.025 1.668,-0.049 1.987,-0.098 0.319,-0.049 0.491,-0.147 0.491,-0.295 0,-0.073 0,-0.122 -0.025,-0.147 -0.049,-0.171 -0.368,-0.269 -0.957,-0.269 h -0.883 l 0.123,-1.693 c 0.122,-1.545 0.171,-2.355 0.196,-2.429 0.025,-0.098 0.025,-0.221 0.025,-0.344 0,-0.244 -0.099,-0.465 -0.295,-0.662 -0.22,-0.172 -0.368,-0.245 -0.49,-0.196 -0.123,0.049 -0.221,0.809 -0.295,2.306 -0.074,1.521 -0.172,2.404 -0.245,2.65 -0.073,0.245 -0.343,0.368 -0.761,0.368 h -0.122 c -0.662,0 -1.006,0.122 -1.006,0.343 0,0.024 0.024,0.098 0.049,0.221"
         style="fill:#ffffff;fill-opacity:1;fill-rule:nonzero;stroke:none"
         transform="matrix(1.3333333,0,0,-1.3333333,-186.70667,309.10667)" />
      <path
         id="path94"
         d="m 217.227,162.61 c 0.073,0.147 0.196,0.221 0.319,0.221 0.147,0 0.27,-0.049 0.367,-0.172 0.27,-0.319 0.467,-2.11 0.589,-5.348 v -0.196 c 0,-0.172 -0.024,-0.295 -0.049,-0.344 -0.049,-0.073 -0.146,-0.122 -0.27,-0.147 h -0.073 c -0.172,0 -0.294,0.172 -0.368,0.491 -0.073,0.318 -0.147,0.957 -0.172,1.864 -0.024,0.663 -0.122,1.448 -0.245,2.306 -0.074,0.466 -0.123,0.809 -0.123,1.08 0,0.123 0,0.22 0.025,0.245"
         style="fill:#ffffff;fill-opacity:1;fill-rule:nonzero;stroke:none"
         transform="matrix(1.3333333,0,0,-1.3333333,-186.70667,309.10667)" />
      <path
         id="path95"
         d="m 227.003,161.359 c 0.049,0.196 -0.049,0.392 -0.27,0.564 -0.221,0.171 -0.441,0.27 -0.662,0.27 -0.172,0 -0.418,-0.099 -0.736,-0.27 -0.369,-0.221 -0.59,-0.442 -0.712,-0.712 -0.122,-0.269 -0.196,-0.662 -0.196,-1.202 0,-0.662 0.049,-1.128 0.123,-1.373 0.122,-0.295 0.368,-0.564 0.735,-0.785 0.368,-0.221 0.761,-0.368 1.202,-0.418 0.123,-0.024 0.246,-0.024 0.418,-0.024 0.147,0 0.22,0.024 0.22,0.074 0,0.098 -0.269,0.441 -0.784,1.005 -0.368,0.417 -0.565,0.737 -0.565,0.933 0,0.123 0.098,0.221 0.27,0.269 h 0.049 c 0.221,0 0.564,-0.269 1.03,-0.785 0.417,-0.465 0.687,-0.711 0.81,-0.711 0.049,0 0.074,0.025 0.098,0.073 0.123,0.148 0.172,0.344 0.172,0.614 v 0.27 c -0.074,1.104 -0.368,1.692 -0.884,1.816 -0.269,0.073 -0.392,0.195 -0.318,0.392 z m -2.944,0.564 c 0.564,0.76 1.202,1.153 1.963,1.153 0.27,0 0.564,-0.074 0.858,-0.221 0.172,-0.098 0.441,-0.343 0.761,-0.761 0.318,-0.416 0.588,-0.858 0.834,-1.324 0.221,-0.368 0.318,-0.932 0.318,-1.644 0,-0.368 -0.049,-0.711 -0.122,-1.005 -0.098,-0.27 -0.147,-0.467 -0.147,-0.589 0,-0.074 0.024,-0.172 0.098,-0.294 0.098,-0.172 0.147,-0.295 0.147,-0.418 0,-0.196 -0.122,-0.294 -0.343,-0.294 -0.197,0 -0.344,0.049 -0.442,0.147 -0.049,0.049 -0.147,0.074 -0.319,0.074 -0.171,0 -0.344,-0.025 -0.564,-0.074 -0.245,-0.049 -0.491,-0.074 -0.712,-0.074 -0.76,0 -1.423,0.295 -1.962,0.884 -0.368,0.368 -0.589,0.711 -0.662,1.03 -0.098,0.319 -0.147,0.859 -0.147,1.62 0,0.539 0.024,0.907 0.073,1.078 0.025,0.172 0.147,0.418 0.368,0.712"
         style="fill:#ffffff;fill-opacity:1;fill-rule:nonzero;stroke:none"
         transform="matrix(1.3333333,0,0,-1.3333333,-186.70667,309.10667)" />
      <path
         id="path96"
         d="m 234.03,162.831 c 0.099,0.098 0.172,0.147 0.246,0.147 0.269,0 0.466,-0.613 0.588,-1.865 0.123,-1.496 0.516,-2.526 1.178,-3.066 0.245,-0.196 0.466,-0.294 0.638,-0.294 0.245,0 0.515,0.22 0.809,0.662 0.295,0.441 0.442,0.957 0.442,1.57 v 0.294 c -0.024,0.81 -0.098,1.252 -0.196,1.35 -0.123,0.122 -0.172,0.27 -0.172,0.465 0,0.221 0.074,0.369 0.196,0.442 0.148,0.074 0.344,0 0.564,-0.27 0.295,-0.294 0.442,-0.956 0.442,-2.011 0,-0.834 -0.098,-1.472 -0.319,-1.914 -0.196,-0.466 -0.49,-0.858 -0.858,-1.177 -0.369,-0.319 -0.736,-0.491 -1.055,-0.491 -0.319,0 -0.662,0.196 -1.08,0.589 -0.417,0.392 -0.785,0.908 -1.103,1.521 -0.197,0.343 -0.32,0.662 -0.369,0.956 -0.049,0.295 -0.073,0.786 -0.073,1.448 0,1.055 0.049,1.595 0.122,1.644"
         style="fill:#ffffff;fill-opacity:1;fill-rule:nonzero;stroke:none"
         transform="matrix(1.3333333,0,0,-1.3333333,-186.70667,309.10667)" />
      <path
         id="path97"
         d="m 244.542,162.683 c 0.368,0.074 0.957,0.123 1.742,0.123 h 0.294 c 0.589,-0.024 0.982,-0.073 1.153,-0.098 0.172,-0.049 0.27,-0.147 0.295,-0.269 0.024,-0.05 0.024,-0.124 0.024,-0.197 0,-0.197 -0.073,-0.368 -0.196,-0.54 -0.123,-0.171 -0.27,-0.27 -0.393,-0.27 -0.073,0 -0.171,0.049 -0.245,0.148 -0.049,0.073 -0.295,0.098 -0.736,0.098 -0.907,0 -1.447,-0.074 -1.595,-0.221 -0.098,-0.098 -0.098,-0.344 0,-0.736 l 0.148,-0.54 1.324,-0.073 c 0.564,-0.025 0.933,-0.074 1.129,-0.123 0.172,-0.074 0.27,-0.172 0.27,-0.319 0,-0.098 -0.074,-0.196 -0.221,-0.294 -0.147,-0.123 -0.294,-0.172 -0.417,-0.172 -0.073,0 -0.123,0.025 -0.172,0.074 -0.025,0.049 -0.196,0.073 -0.466,0.073 -0.049,0 -0.123,0 -0.221,0 -0.122,-0.024 -0.196,-0.024 -0.27,-0.024 -0.367,-0.025 -0.637,-0.098 -0.76,-0.172 -0.123,-0.098 -0.196,-0.27 -0.196,-0.515 0,-0.074 0.024,-0.245 0.049,-0.515 l 0.049,-0.516 1.619,-0.049 c 1.153,-0.024 1.718,-0.147 1.718,-0.318 0,-0.099 -0.124,-0.172 -0.393,-0.246 -0.491,-0.172 -1.398,-0.245 -2.699,-0.245 -0.564,0 -0.859,0.024 -0.932,0.098 -0.073,0.074 -0.172,0.711 -0.294,1.865 -0.148,1.152 -0.246,2.158 -0.27,2.968 l -0.025,0.834 z"
         style="fill:#ffffff;fill-opacity:1;fill-rule:nonzero;stroke:none"
         transform="matrix(1.3333333,0,0,-1.3333333,-186.70667,309.10667)" />
      <path
         id="path98"
         d="m 254.907,208.107 4.465,-4.481 c -0.093,-5.416 -1.275,-12.3 3.578,-12.072 1.53,0.072 1.949,1.284 2.712,2.194 l -0.007,-4.065 -0.014,-7.622 -3.109,-3.098 c 1.853,-0.472 3.743,-1.243 6.003,-2.125 5.144,-1.989 9.325,-2.714 14.563,-0.539 1.835,0.763 4.487,2.126 6.031,0.097 0.866,-1.29 -0.066,-3.366 -1.307,-4.155 -6.884,-4.338 -12.204,-3.263 -19.375,-0.523 -2.489,0.949 -5.104,1.886 -7.693,2.513 -1.299,0.314 -2.23,0.236 -2.966,0.004 l -2.947,-2.936 -7.623,0.014 -7.623,0.013 -5.381,5.401 -5.38,5.399 0.013,7.624 0.014,7.622 -0.446,3.326 c -0.367,3.157 -0.407,6.803 0.209,9.923 0.129,0.653 0.43,2.058 0.798,2.535 0.488,0.635 1.304,0.81 2.033,0.519 2.833,-1.131 5.838,-3.012 7.646,-4.871 l 0.542,-0.688 0.018,0.018 7.623,-0.014 z m 2.393,-18.808 -0.02,0.106 c 0.004,-0.045 -0.002,-0.023 0.006,-0.059 0.01,-0.053 0.004,-0.018 0.014,-0.047 z m 2.231,-2.376 0.004,0.045 -0.002,-0.014 z m 0.008,1.98 0.4,1.295 -0.08,-0.254 z m -8.558,-4.165 0.151,0.075 c -0.118,0.231 -0.206,0.484 -0.254,0.742 -0.076,0.336 -0.111,0.626 -0.11,0.943 0,0.306 0.033,0.595 0.092,0.95 l 0.042,0.171 c 0.056,0.174 0.109,0.358 0.176,0.528 0.01,0.022 0.01,0.013 0.01,0.008 l 0.006,0.067 c 0.011,0.091 0.041,0.254 0.076,0.394 0.028,0.11 0.065,0.224 0.112,0.331 l 0.091,0.25 c 0.021,0.066 0.047,0.13 0.081,0.193 0.132,0.25 0.235,0.456 0.397,0.685 0.07,0.136 0.168,0.261 0.293,0.366 l 0.048,0.04 c 0.12,0.121 0.209,0.188 0.286,0.243 0.181,0.167 0.414,0.278 0.672,0.305 0.212,0.053 0.44,0.047 0.662,-0.028 l 0.048,-0.017 c 0.107,-0.032 0.211,-0.081 0.309,-0.146 0.278,-0.186 0.484,-0.356 0.627,-0.514 0.129,0.134 0.259,0.246 0.396,0.345 0.195,0.138 0.387,0.243 0.6,0.337 l 0.075,0.034 c 0.03,0.056 0.07,0.146 0.147,0.276 l 0.051,0.089 c 0.159,0.247 0.261,0.3 0.28,0.37 0.106,0.395 0.414,0.724 0.837,0.837 0.63,0.168 1.279,-0.207 1.447,-0.837 0.106,-0.393 0.02,-0.681 -0.07,-0.928 l -0.18,-0.58 c -0.034,-0.094 -0.13,-0.042 -0.152,-0.104 l 0.081,-0.176 0.328,0.446 c 0.061,0.125 0.142,0.241 0.243,0.342 0.089,0.135 0.195,0.27 0.388,0.396 0.29,0.201 0.666,0.269 1.028,0.155 0.623,-0.197 0.968,-0.862 0.772,-1.485 l -0.38,-1.219 c 0.081,-0.274 0.128,-0.466 0.132,-0.915 10e-4,-0.124 -0.007,-0.209 -0.015,-0.29 l -10e-4,-0.029 c 0.315,0.115 0.678,0.095 0.991,-0.084 l 0.014,-0.008 c 0.234,-0.116 0.431,-0.31 0.547,-0.562 0.124,-0.194 0.192,-0.424 0.184,-0.668 l 0.003,-0.033 c 0.009,-0.135 0.021,-0.286 -0.013,-0.511 -0.018,-0.125 -0.042,-0.242 -0.069,-0.348 -0.095,-0.318 -0.195,-0.577 -0.325,-0.884 l -0.158,-0.291 -0.216,-0.322 c -0.08,-0.11 -0.154,-0.193 -0.221,-0.266 -0.017,-0.019 -0.02,-0.036 -0.035,-0.022 l -0.116,-0.221 c -0.066,-0.126 -0.101,-0.191 -0.174,-0.297 -0.065,-0.096 -0.113,-0.153 -0.2,-0.253 l -0.203,-0.24 c -0.052,-0.06 -0.11,-0.116 -0.175,-0.167 l -0.352,-0.304 c -0.119,-0.096 -0.23,-0.166 -0.337,-0.234 l -0.051,-0.031 c -0.101,-0.078 -0.216,-0.141 -0.343,-0.184 l -0.102,-0.044 c -0.204,-0.09 -0.436,-0.193 -0.714,-0.249 l 0.007,-0.023 c 0.028,-0.101 0.038,-0.173 0.045,-0.24 0.06,-0.192 0.072,-0.401 0.027,-0.606 l -0.002,-0.016 c -0.007,-0.104 -0.017,-0.22 -0.051,-0.37 l -0.046,-0.196 c -0.015,-0.07 -0.036,-0.14 -0.065,-0.209 -0.075,-0.182 -0.14,-0.311 -0.215,-0.439 -0.068,-0.115 -0.133,-0.207 -0.225,-0.338 -0.042,-0.059 -0.09,-0.115 -0.143,-0.167 l -0.094,-0.091 c -0.086,-0.087 -0.175,-0.174 -0.321,-0.274 -0.627,-0.434 -1.09,-0.475 -1.38,-0.49 -0.134,-0.025 -0.275,-0.028 -0.417,-0.003 -0.516,0.089 -0.815,0.159 -1.148,0.366 -0.344,0.215 -0.532,0.456 -0.819,0.884 -0.103,0.153 -0.204,0.295 -0.312,0.412 -0.07,0.076 -0.149,0.144 -0.237,0.2 l -0.046,0.024 c -0.037,0.02 -0.145,0.057 -0.262,0.084 -0.093,-0.006 -0.191,-0.005 -0.289,0.008 l -0.263,-0.029 c -0.167,-0.016 -0.296,-0.029 -0.513,-0.027 -0.074,-0.001 -0.148,0.005 -0.222,0.018 l -0.356,0.065 c -0.098,0.013 -0.195,0.037 -0.291,0.075 -0.34,0.136 -0.454,0.227 -0.645,0.406 l -0.091,0.081 -0.184,0.214 c -0.115,0.131 -0.224,0.252 -0.348,0.48 -0.113,0.215 -0.158,0.356 -0.199,0.499 l -0.034,0.12 c -0.04,0.106 -0.063,0.22 -0.07,0.337 l -0.01,0.126 c -0.015,0.19 -0.03,0.364 0.023,0.67 0.058,0.336 0.138,0.512 0.225,0.698 l 0.046,0.111 c 0.062,0.175 0.161,0.337 0.297,0.47 l 0.092,0.122 c 0.08,0.094 0.154,0.16 0.227,0.226 l 0.014,0.012 c 0.068,0.068 0.145,0.129 0.231,0.181 l 0.015,0.012 c 0.077,0.057 0.16,0.119 0.292,0.19 z m 11.554,1.258 c -0.005,-0.051 0.004,0.022 0.006,0.032 z m -3.997,4.794 -0.002,-0.008 m 0.101,-0.35 -0.004,-0.008 m -10.425,6.109 c 0.106,0.033 0.215,0.061 0.326,0.084 0.604,0.126 1.142,0.055 1.603,-0.126 0.561,-0.22 0.996,-0.604 1.291,-0.981 0.303,-0.388 0.522,-0.867 0.646,-1.379 0.121,-0.496 0.158,-1.031 0.103,-1.545 v -0.005 c -0.053,-0.501 -0.171,-0.94 -0.33,-1.332 -0.155,-0.381 -0.354,-0.722 -0.571,-1.033 -0.26,-0.371 -0.61,-0.721 -1.007,-0.994 -0.38,-0.26 -0.812,-0.458 -1.263,-0.551 0.143,-0.225 0.273,-0.474 0.376,-0.744 0.516,-1.335 0.315,-2.854 -0.765,-3.858 -0.685,-0.638 -1.633,-0.989 -2.596,-1.086 -0.622,-0.062 -1.115,0.048 -1.601,0.156 -0.228,0.05 -0.456,0.101 -0.665,0.114 -0.197,0.011 -0.492,-0.118 -0.805,-0.254 -0.275,-0.12 -0.561,-0.246 -0.878,-0.341 -0.46,-0.137 -0.954,-0.189 -1.431,-0.173 -0.51,0.019 -1.003,0.119 -1.414,0.281 -0.371,0.145 -0.694,0.336 -0.965,0.558 -0.641,0.525 -1.02,1.226 -1.163,1.984 -0.135,0.717 -0.052,1.48 0.222,2.178 l 0.002,0.003 c -0.437,-0.023 -0.883,0.045 -1.307,0.194 -0.394,0.138 -0.772,0.344 -1.109,0.609 -0.293,0.231 -0.598,0.531 -0.872,0.896 v 0.004 c -0.236,0.314 -0.453,0.678 -0.621,1.086 -0.103,0.249 -0.184,0.5 -0.243,0.75 -0.192,0.816 -0.155,1.644 0.106,2.349 v 0.005 c 0.289,0.781 0.845,1.415 1.665,1.753 0.158,0.065 0.318,0.118 0.479,0.155 0.284,0.066 0.578,0.083 0.857,0.063 l 0.092,-0.008 -0.036,0.107 c -0.255,0.793 -0.331,1.664 -0.158,2.446 l 0.093,0.372 c 0.036,0.13 0.078,0.257 0.114,0.337 l 0.04,0.085 c 0.187,0.408 0.307,0.67 0.672,1.042 0.165,0.169 0.354,0.327 0.577,0.462 0.229,0.141 0.491,0.255 0.791,0.332 0.676,0.173 1.288,0.065 1.806,-0.154 0.461,-0.196 0.827,-0.474 1.084,-0.702 0.224,-0.198 0.439,-0.443 0.633,-0.722 0.268,0.618 0.657,1.163 1.152,1.561 0.367,0.295 0.791,0.512 1.267,0.62 0.603,0.139 1.148,0.067 1.616,-0.115 0.576,-0.227 1.022,-0.62 1.307,-0.983 0.395,-0.502 0.657,-1.084 0.798,-1.694 0.137,-0.591 0.159,-1.21 0.082,-1.806 z m -17.611,2.57 3.664,3.65 4.092,4.078 -0.016,0.023 -0.433,0.501 c -1.3,1.336 -3.46,2.689 -5.497,3.502 -0.524,0.209 -1.111,0.084 -1.463,-0.373 -0.264,-0.343 -0.48,-1.353 -0.573,-1.823 -0.442,-2.243 -0.414,-4.864 -0.15,-7.134 z"
         style="fill:#ff6600;fill-opacity:1;fill-rule:evenodd;stroke:none"
         transform="matrix(1.3333333,0,0,-1.3333333,-186.70667,309.10667)" />
      <path
         id="path99"
         d="m 248.752,195.569 c -2.146,-0.448 -3.034,-3.588 -1.831,-5.129 0.363,-0.464 0.982,-0.894 1.86,-0.719 0.65,0.129 1.26,0.595 1.618,1.108 0.343,0.49 0.63,1.082 0.713,1.866 0.084,0.784 -0.106,1.619 -0.527,2.156 -0.348,0.445 -0.974,0.897 -1.833,0.718 z m -6.367,-2.397 c -1.471,-0.278 -1.964,-1.55 -2.218,-2.849 -0.07,-0.357 -0.109,-0.664 -0.233,-0.976 -0.063,-0.158 -0.127,-0.292 -0.206,-0.414 -0.249,-0.386 -0.215,-0.263 -0.437,-0.51 -0.11,-0.123 -0.273,-0.235 -0.48,-0.487 -1.087,-1.328 -0.988,-3.467 0.806,-4.172 0.595,-0.235 1.428,-0.292 2.148,-0.078 0.757,0.225 1.351,0.678 2.053,0.636 0.707,-0.042 1.33,-0.35 2.099,-0.273 1.383,0.138 2.685,0.919 2.665,2.478 -0.01,0.794 -0.351,1.47 -0.744,1.928 -0.453,0.527 -1.026,0.717 -1.432,1.097 -0.45,0.421 -0.623,1.077 -0.926,1.717 -0.569,1.206 -1.455,2.214 -3.095,1.903 z m -6.72,1.074 c -1.465,-0.343 -1.891,-2.037 -1.261,-3.562 0.286,-0.692 0.742,-1.215 1.166,-1.549 1.145,-0.9 2.824,-0.831 3.383,0.759 0.552,1.567 -0.517,3.711 -2.168,4.271 -0.327,0.111 -0.746,0.169 -1.12,0.081 z m 3.062,5.243 c -0.384,-0.097 -0.653,-0.285 -0.869,-0.506 -0.255,-0.259 -0.337,-0.466 -0.498,-0.816 -0.038,-0.085 -0.117,-0.401 -0.139,-0.5 -0.267,-1.199 0.266,-2.735 1.138,-3.53 0.377,-0.345 1.085,-0.828 1.931,-0.618 1.338,0.334 1.847,2.082 1.384,3.634 -0.213,0.712 -0.608,1.345 -1.029,1.718 -0.388,0.343 -1.083,0.83 -1.918,0.618 z m 5.916,0.598 c -1.916,-0.436 -2.686,-3.661 -1.314,-5.366 0.356,-0.441 1.008,-0.906 1.859,-0.709 1.857,0.431 2.688,3.593 1.297,5.358 -0.337,0.428 -0.989,0.912 -1.842,0.717"
         style="fill:#ffb61d;fill-opacity:1;fill-rule:evenodd;stroke:none"
         transform="matrix(1.3333333,0,0,-1.3333333,-186.70667,309.10667)" />
      <path
         id="path100"
         d="m 255.22,184.96 -0.185,-0.023 c -0.294,-0.002 -0.893,-0.526 -1.185,-0.798 -0.195,-0.181 -0.415,-0.251 -0.634,-0.293 -0.238,-0.046 -0.472,0.007 -0.732,0.028 -0.26,-0.006 -0.413,-0.006 -0.645,-0.062 -0.097,-0.023 -0.199,-0.06 -0.299,-0.114 -0.096,-0.052 -0.175,-0.132 -0.256,-0.174 -0.065,-0.064 -0.121,-0.105 -0.186,-0.179 -0.052,-0.06 -0.107,-0.162 -0.162,-0.191 -0.081,-0.245 -0.181,-0.35 -0.229,-0.637 -0.038,-0.223 -0.005,-0.339 0.001,-0.528 0.061,-0.174 0.063,-0.272 0.165,-0.461 0.097,-0.18 0.204,-0.256 0.326,-0.419 0.12,-0.113 0.171,-0.16 0.34,-0.229 l 0.416,-0.075 c 0.185,-0.003 0.297,0.011 0.466,0.026 0.152,0.014 0.316,0.044 0.486,0.02 0.174,0.073 0.754,-0.111 0.967,-0.23 0.458,-0.257 0.728,-0.609 0.998,-1.012 0.381,-0.569 0.457,-0.614 1.185,-0.741 0.123,0.041 0.43,-0.048 0.927,0.298 0.104,0.072 0.169,0.157 0.262,0.241 0.15,0.213 0.209,0.296 0.316,0.552 l 0.039,0.163 c 0.043,0.149 0.028,0.339 0.061,0.429 -0.046,0.085 -0.032,0.194 -0.055,0.277 -0.026,0.097 -0.063,0.174 -0.068,0.26 -0.028,0.024 -0.003,-0.008 -0.035,0.043 -0.065,0.104 -0.048,0.161 -0.232,0.316 -0.117,0.1 -0.259,0.213 -0.35,0.32 -0.78,0.921 0.02,1.707 -0.519,2.517 l -0.067,0.107 c -0.1,0.11 -0.176,0.207 -0.313,0.302 l -0.366,0.189 c -0.173,0.04 -0.284,0.051 -0.437,0.078 z m 5.955,1.213 -0.155,-0.385 c -0.058,-0.107 -0.137,-0.306 -0.231,-0.355 -0.048,-0.127 -0.158,-0.239 -0.251,-0.333 l -0.113,-0.117 c -0.48,0.274 -0.839,0.196 -1.339,-0.044 -0.192,-0.092 -0.375,-0.211 -0.561,-0.362 -0.21,-0.171 -0.323,-0.316 -0.514,-0.508 -0.159,-0.24 -0.253,-0.376 -0.377,-0.661 -0.121,-0.441 -0.157,-0.926 0.379,-1.065 0.499,-0.13 0.887,0.141 1.162,0.234 0.125,0.088 0.245,0.152 0.375,0.254 0.129,0.102 0.237,0.211 0.361,0.31 0.443,0.531 0.252,0.251 0.584,0.862 0.043,0.078 0.229,0.25 0.314,0.368 0.107,0.147 0.188,0.296 0.277,0.466 l 0.161,0.401 c 0.048,0.15 0.09,0.304 0.112,0.455 0.026,0.173 -0.009,0.29 0.001,0.409 -0.021,0.03 -0.055,0.08 -0.076,0.135 l -0.077,0.044 z m -7.896,3.68 c -0.076,-0.077 -0.159,-0.106 -0.288,-0.244 l -0.088,-0.074 c -0.027,-0.072 -0.078,-0.133 -0.128,-0.195 l -0.082,-0.133 -0.194,-0.368 -0.127,-0.351 c -0.047,-0.082 -0.091,-0.312 -0.104,-0.409 -0.031,-0.237 -0.013,-0.182 -0.117,-0.428 l -0.126,-0.393 c -0.1,-0.606 -0.111,-0.936 0.007,-1.451 0.148,-0.921 1.126,-1.677 1.712,-0.302 0.058,0.138 0.081,0.294 0.146,0.417 -0.026,0.086 0.159,0.638 -0.022,1.413 -0.121,0.518 -0.312,0.9 -0.841,1.08 0.035,0.178 0.016,0.394 0.111,0.568 -0.02,0.089 0.164,0.569 0.242,0.621 l 0.071,0.148 0.05,0.072 c -0.017,0.045 0.071,0.01 -0.068,0.057 -0.059,-0.017 -0.115,-0.024 -0.154,-0.028 z m 1.415,-3.396 0.186,-0.28 c 0.158,-0.118 0.203,-0.145 0.398,-0.179 0.059,0.004 0.093,-0.002 0.158,0.009 0.033,0.006 0.055,0.013 0.087,0.019 0.062,0.01 0.035,0.011 0.086,0.004 0.256,0.169 0.355,0.134 0.705,0.494 0.571,0.588 1.035,1.721 1,2.553 -0.004,0.08 -0.018,0.146 -0.014,0.222 -0.011,0.029 -0.004,-0.006 -0.015,0.046 -0.007,0.037 -0.001,0.015 -0.004,0.06 -0.033,0.02 -0.033,0.057 -0.057,0.117 -0.098,0.248 -0.174,0.228 -0.158,0.362 -0.03,0.166 0.146,0.634 0.216,0.832 l 0.113,0.376 c 0.028,0.105 0.119,0.278 0.092,0.378 -0.022,-0.079 -0.807,-1.31 -0.877,-1.374 -0.039,-0.034 -0.22,-0.12 -0.285,-0.146 -0.339,-0.14 -0.557,-0.29 -0.828,-0.609 -0.546,-0.643 -1.066,-1.856 -0.845,-2.707 0.02,-0.079 0.036,-0.104 0.042,-0.177 z m 5.018,3.478 c -0.04,-0.106 -0.122,-0.194 -0.188,-0.286 l -0.245,-0.334 c -0.097,-0.141 -0.2,-0.272 -0.301,-0.414 -0.087,-0.124 -0.05,-0.104 -0.184,-0.124 -0.084,-0.013 -0.134,-0.026 -0.209,-0.052 -0.438,-0.145 -0.974,-0.869 -1.268,-1.415 -0.208,-0.388 -0.284,-0.591 -0.361,-1.006 -0.09,-0.483 0.01,-0.712 -0.002,-0.902 0.029,-0.027 0.118,-0.247 0.157,-0.33 0.762,-0.892 1.964,0.538 2.278,1.455 0.044,0.112 0.074,0.272 0.141,0.354 -10e-4,0.007 -10e-4,0.014 0,0.019 l 0.003,0.054 c 0.003,0.021 0.007,0.032 0.011,0.052 l 0.078,0.363 c -0.006,0.086 0.019,0.217 0.018,0.319 -0.004,0.398 -0.062,0.499 -0.165,0.867 -0.033,0.121 0.022,0.209 0.064,0.348 l 0.32,1.042 0.08,0.253 c -0.088,-0.048 -0.139,-0.221 -0.227,-0.263"
         style="fill:#ffb61d;fill-opacity:1;fill-rule:evenodd;stroke:none"
         transform="matrix(1.3333333,0,0,-1.3333333,-186.70667,309.10667)" />
      <path
         id="path101"
         d="m 273.948,161.984 c -0.553,0.033 -1.278,-0.01 -1.597,-0.231 -0.589,-0.368 -0.883,-0.981 -0.883,-1.84 0,-0.441 0.074,-0.858 0.245,-1.251 0.148,-0.367 0.393,-0.637 0.712,-0.834 0.319,-0.196 0.662,-0.294 1.03,-0.294 1.106,-0.19 0.215,0.935 1.258,-0.269 -0.974,-0.488 -0.301,-0.426 -1.283,-0.442 -0.589,0 -1.128,0.097 -1.619,0.294 -0.515,0.196 -0.785,0.441 -0.859,0.736 -0.024,0.123 -0.073,0.343 -0.147,0.637 -0.073,0.295 -0.146,0.565 -0.171,0.81 -0.049,0.245 -0.074,0.515 -0.074,0.81 0,1.275 0.589,2.134 1.742,2.6 1.801,0.54 1.587,-0.758 1.646,-0.726"
         style="fill:#ffffff;fill-opacity:1;fill-rule:nonzero;stroke:none"
         transform="matrix(1.3333333,0,0,-1.3333333,-186.70667,309.10667)" />
      <path
         id="path102"
         d="m 280.484,162.851 c 0.073,0.147 0.196,0.221 0.319,0.221 0.146,0 0.27,-0.049 0.367,-0.172 0.266,-0.314 0.461,-2.057 0.584,-5.207 0.105,0.008 0.222,0.012 0.349,0.011 0.322,0.005 0.704,0.079 1.122,0.176 0.227,0.06 0.394,0.099 0.525,0.091 0.06,-0.004 0.107,-0.007 0.119,-0.033 0.07,-0.078 0.104,-0.202 0.102,-0.325 -0.002,-0.147 -0.027,-0.269 -0.089,-0.362 -0.158,-0.261 -1.029,-0.403 -2.601,-0.428 l -0.096,0.006 c -0.083,0.005 -0.142,0.033 -0.166,0.059 -0.034,0.051 -0.057,0.15 -0.067,0.274 l 10e-4,0.074 c 0.001,0.063 0.013,0.118 0.036,0.166 -0.07,0.332 -0.138,0.953 -0.162,1.818 -0.024,0.663 -0.122,1.448 -0.245,2.307 -0.074,0.465 -0.123,0.809 -0.123,1.079 0,0.123 0,0.22 0.025,0.245"
         style="fill:#ffffff;fill-opacity:1;fill-rule:nonzero;stroke:none"
         transform="matrix(1.3333333,0,0,-1.3333333,-186.70667,309.10667)" />
      <path
         id="path103"
         d="m 291.169,162.809 c 0.073,0.147 0.196,0.221 0.319,0.221 0.147,0 0.27,-0.049 0.367,-0.172 0.27,-0.319 0.467,-2.11 0.589,-5.348 v -0.197 c 0,-0.172 -0.024,-0.294 -0.049,-0.343 -0.049,-0.073 -0.146,-0.122 -0.27,-0.147 h -0.073 c -0.172,0 -0.294,0.172 -0.368,0.49 -0.073,0.319 -0.147,0.957 -0.172,1.865 -0.024,0.663 -0.122,1.447 -0.245,2.306 -0.074,0.466 -0.123,0.809 -0.123,1.079 0,0.123 0,0.221 0.025,0.246"
         style="fill:#ffffff;fill-opacity:1;fill-rule:nonzero;stroke:none"
         transform="matrix(1.3333333,0,0,-1.3333333,-186.70667,309.10667)" />
      <path
         id="path104"
         d="m 299.446,162.809 c 0.074,0.147 0.196,0.221 0.32,0.221 0.096,0 0.182,-0.022 0.257,-0.071 0.347,-0.171 1.141,-1.411 2.376,-3.703 v 0.005 c -0.024,0.663 -0.122,1.448 -0.245,2.307 -0.074,0.465 -0.123,0.809 -0.123,1.079 0,0.123 0,0.22 0.025,0.245 0.073,0.147 0.196,0.221 0.319,0.221 0.147,0 0.27,-0.049 0.367,-0.172 0.27,-0.318 0.467,-2.109 0.59,-5.348 v -0.196 c 0,-0.172 -0.025,-0.294 -0.05,-0.343 -0.049,-0.074 -0.146,-0.123 -0.27,-0.148 h -0.073 c -0.172,0 -0.294,0.172 -0.368,0.491 -0.015,0.066 -0.031,0.146 -0.045,0.24 -0.085,0.05 -0.175,0.135 -0.27,0.253 -0.204,0.256 -0.546,0.799 -0.961,1.607 -0.207,0.394 -0.468,0.824 -0.763,1.282 0.076,-0.842 0.139,-1.932 0.19,-3.269 v -0.197 c 0,-0.172 -0.024,-0.294 -0.049,-0.343 -0.049,-0.073 -0.147,-0.122 -0.27,-0.147 h -0.074 c -0.171,0 -0.294,0.172 -0.368,0.49 -0.073,0.319 -0.146,0.957 -0.171,1.865 -0.024,0.663 -0.123,1.447 -0.245,2.306 -0.074,0.466 -0.124,0.809 -0.124,1.079 v 0.007 c -0.007,0.023 -0.009,0.041 -0.005,0.053 10e-4,0.026 0.003,0.052 0.007,0.076 0.003,0.055 0.009,0.095 0.023,0.11"
         style="fill:#ffffff;fill-opacity:1;fill-rule:nonzero;stroke:none"
         transform="matrix(1.3333333,0,0,-1.3333333,-186.70667,309.10667)" />
      <path
         id="path105"
         d="m 310.326,162.809 c 0.074,0.147 0.196,0.221 0.319,0.221 0.147,0 0.27,-0.049 0.368,-0.172 0.27,-0.319 0.466,-2.11 0.589,-5.348 v -0.197 c 0,-0.172 -0.025,-0.294 -0.049,-0.343 -0.049,-0.073 -0.147,-0.122 -0.27,-0.147 h -0.074 c -0.171,0 -0.294,0.172 -0.368,0.49 -0.073,0.319 -0.146,0.957 -0.171,1.865 -0.025,0.663 -0.123,1.447 -0.245,2.306 -0.074,0.466 -0.124,0.809 -0.124,1.079 0,0.123 0,0.221 0.025,0.246"
         style="fill:#ffffff;fill-opacity:1;fill-rule:nonzero;stroke:none"
         transform="matrix(1.3333333,0,0,-1.3333333,-186.70667,309.10667)" />
      <path
         id="path106"
         d="m 321.842,161.984 c -0.553,0.033 -1.278,-0.01 -1.597,-0.231 -0.589,-0.368 -0.884,-0.981 -0.884,-1.84 0,-0.441 0.074,-0.858 0.246,-1.251 0.148,-0.367 0.393,-0.637 0.711,-0.834 0.32,-0.196 0.663,-0.294 1.031,-0.294 1.106,-0.19 0.215,0.935 1.258,-0.269 -0.974,-0.488 -0.301,-0.426 -1.283,-0.442 -0.589,0 -1.128,0.097 -1.619,0.294 -0.515,0.196 -0.785,0.441 -0.859,0.736 -0.024,0.123 -0.073,0.343 -0.147,0.637 -0.073,0.295 -0.147,0.565 -0.172,0.81 -0.049,0.245 -0.073,0.515 -0.073,0.81 0,1.275 0.589,2.134 1.742,2.6 1.801,0.54 1.587,-0.758 1.646,-0.726"
         style="fill:#ffffff;fill-opacity:1;fill-rule:nonzero;stroke:none"
         transform="matrix(1.3333333,0,0,-1.3333333,-186.70667,309.10667)" />
      <path
         id="path107"
         d="m 3.7375156,-8.4488984 c 0,0.4804687 0.2109375,0.9960937 0.5976563,1.5820312 0.1757812,0.234375 0.3046875,0.3398438 0.3984375,0.3398438 h 0.035156 c 0.234375,0 0.515625,-0.28125 0.84375,-0.8671875 0.140625,-0.2695313 0.2226563,-0.5507813 0.2226563,-0.8671875 v -0.3398438 c 0,-0.3515625 -0.1171875,-0.65625 -0.3046875,-0.9492187 C 5.3312656,-9.8082734 5.0968906,-9.9488984 4.7922031,-9.9488984 h -0.023437 c -0.2460937,0 -0.4804687,0.1054687 -0.6796875,0.3398437 -0.2109375,0.234375 -0.3164062,0.4921875 -0.3164062,0.7382813 l -0.035156,0.2226562 z m -1.3945312,5.3203125 v 0.2695312 c 0,0.5039063 0.1875,0.9609375 0.5859375,1.3710938 0.375,0.421875 0.84375,0.62109371 1.3945312,0.62109371 h 0.3164063 c 0.3398437,0 0.7265625,-0.09375 1.1132812,-0.28125001 0.375,-0.1992187 0.5625,-0.3984375 0.5625,-0.5859375 v -0.046875 c 0,-0.046875 -0.4335937,-0.5976562 -1.3359375,-1.6523437 -0.890625,-1.0429688 -1.359375,-1.5820313 -1.40625,-1.5820313 h -0.070312 c -0.1992187,0 -0.4570312,0.1992188 -0.7382812,0.609375 -0.28125,0.4101563 -0.421875,0.8320313 -0.4218755,1.2773438 z m 7.2773437,-2.8359375 c 0.3164063,0 0.4804689,0.1171875 0.4804689,0.3164062 0,0.070312 -0.1171876,0.2578125 -0.3632814,0.5507813 -0.234375,0.3046875 -0.4570312,0.7265625 -0.6796875,1.2421875 -0.2226562,0.515625 -0.328125,1.0195312 -0.328125,1.5117187 0,0.2695313 0.1054688,0.515625 0.328125,0.7734375 0.2226563,0.2460938 0.5039063,0.4570313 0.8320313,0.62109376 0.3515626,0.1640625 0.5156246,0.26953125 0.5156246,0.3515625 v 0.0585938 c 0,0.0351563 -0.04687,0.0820313 -0.140625,0.140625 -0.3164059,0.22265625 -0.7617184,0.33984375 -1.3593746,0.33984375 -0.2929688,0 -0.6679688,-0.08203125 -1.125,-0.2578125 -0.4570313,-0.17578125 -0.75,-0.24609375 -0.9257813,-0.24609375 -0.1523437,0 -0.5625,0.10546875 -1.2070312,0.31640625 -0.6328125,0.2109375 -1.1835938,0.328125 -1.640625,0.328125 -0.9609375,0 -1.7226563,-0.234375 -2.296875,-0.73828125 C 1.3937656,-0.92546094 1.1593906,-1.2418672 1.0070469,-1.5934297 0.84298437,-1.9449922 0.77267187,-2.2848359 0.77267187,-2.5778047 v -0.2578125 c 0,-0.7851562 0.42187503,-1.5351562 1.25390623,-2.2617187 0.4921875,-0.4101563 0.7265625,-0.75 0.7265625,-1.0078125 0,-0.046875 -0.1171875,-0.328125 -0.3164062,-0.8320313 -0.1992188,-0.4804687 -0.2929688,-0.890625 -0.2929688,-1.2070312 0,-0.7265625 0.234375,-1.3125 0.7382813,-1.7460938 0.4804687,-0.4453123 1.0664062,-0.6562503 1.7578125,-0.6562503 0.6914062,0 1.2421875,0.1875 1.6289062,0.5625003 0.4101563,0.375 0.6210938,0.8203125 0.6210938,1.3007813 0,0.5039062 -0.1640625,1.0078125 -0.46875,1.546875 -0.3164063,0.515625 -0.4804688,0.9726562 -0.4804688,1.3828125 0,0.4101562 0.1289063,0.8203125 0.4101563,1.2070312 0.2695312,0.4101563 0.5507812,0.6210938 0.8320312,0.6210938 0.2695313,0 0.4804688,-0.1171875 0.5976563,-0.3398438 0.1289062,-0.2109375 0.1875,-0.4570312 0.1875,-0.7148437 l -0.046875,-0.4101563 c 0,-0.3867187 0.5742187,-0.5742187 1.6992187,-0.5742187 z m 0,0"
         style="fill:#ffffff;fill-opacity:1;fill-rule:nonzero;stroke:none"
         aria-label="&amp;"
         transform="matrix(1.3333333,0,0,1.3333333,151.82133,102.87067)" />
    </g>
  </g>
</svg>
