<svg width="105" height="76" viewBox="0 0 105 76" fill="none" xmlns="http://www.w3.org/2000/svg">
<path fill-rule="evenodd" clip-rule="evenodd" d="M73.2146 56.0141C68.7791 58.9387 63.6905 61.7524 58.2696 64.0663C61.2633 66.52 64.8125 68.4044 68.6488 69.5746C78.463 72.6011 89.0466 70.9384 97.0823 64.6249C97.0033 64.6258 96.9143 64.617 96.8153 64.5984C95.5511 64.5735 94.2866 64.5289 93.0219 64.4645C90.2363 64.3782 92.441 60.7388 94.4265 60.8047C96.699 60.9167 98.9713 61.009 101.243 61.0814C102.577 61.1549 103.97 61.1684 104.315 62.6752C104.658 64.0042 103.171 65.8875 102.592 66.9606C101.647 68.7291 100.702 70.4976 99.7573 72.2661C98.7161 74.2332 94.9512 74.0101 96.3387 71.3281C97.0328 70.0167 97.7367 68.6953 98.4503 67.364C98.5663 67.1651 98.6917 66.9366 98.8267 66.6783C92.0311 72.6813 82.8943 76.2823 73.7267 75.1737C66.547 74.3088 58.806 71.2583 53.5242 65.9281C38.191 71.4373 21.167 72.1377 9.59294 58.9119C-5.37925 41.7263 -0.805277 17.2353 13.805 1.54443C15.8502 -0.671238 15.6041 3.24172 14.4938 4.43943C6.63311 12.8541 1.39437 24.7635 3.29247 36.5015C5.03072 47.3231 11.5963 58.0593 22.0211 62.5006C31.2551 66.4817 41.6769 66.0651 51.2083 63.2001C50.6353 62.4069 50.0923 61.643 49.637 60.7892C40.7468 44.3332 51.7023 23.1453 70.2452 20.7685C78.2008 19.7583 87.0679 22.855 87.9256 31.9983C88.9193 42.5027 81.4702 50.6756 73.2146 56.0141ZM55.6913 61.6671C55.7503 61.6467 55.7993 61.6165 55.8382 61.5766C61.4968 59.3191 66.9125 56.5906 71.9943 53.2438C76.7537 50.1673 82.6588 46.3371 84.4522 40.6585C87.98 29.3021 77.7986 23.051 67.7835 25.1515C57.9753 27.2199 49.564 34.2783 49.2567 44.9754C49.0733 51.4647 51.5763 57.2417 55.6913 61.6671Z" fill="#690395"/>
</svg>
