<?xml version="1.0" encoding="UTF-8"?>
<!DOCTYPE svg PUBLIC "-//W3C//DTD SVG 1.1//EN" "http://www.w3.org/Graphics/SVG/1.1/DTD/svg11.dtd">
<svg xmlns="http://www.w3.org/2000/svg" version="1.1" width="512px" height="512px" style="shape-rendering:geometricPrecision; text-rendering:geometricPrecision; image-rendering:optimizeQuality; fill-rule:evenodd; clip-rule:evenodd" xmlns:xlink="http://www.w3.org/1999/xlink">
<g><path style="opacity:0.942" fill="#000000" d="M 269.5,-0.5 C 276.5,-0.5 283.5,-0.5 290.5,-0.5C 302.123,1.47097 312.79,5.97097 322.5,13C 349.49,34.6528 372.99,59.4861 393,87.5C 406.502,108.5 419.502,129.833 432,151.5C 451.088,180.42 476.255,202.42 507.5,217.5C 509.679,219.84 511.013,222.507 511.5,225.5C 511.5,243.167 511.5,260.833 511.5,278.5C 509.783,287.531 504.45,290.698 495.5,288C 439.47,256.642 393.637,214.142 358,160.5C 348,143.833 338,127.167 328,110.5C 322.799,102.796 315.632,98.1295 306.5,96.5C 301.439,97.2815 296.939,99.2815 293,102.5C 288.167,108.667 283.333,114.833 278.5,121C 285.97,136.698 283.303,150.365 270.5,162C 258.452,169.281 246.452,169.281 234.5,162C 212,144.167 189.5,126.333 167,108.5C 157.438,95.0702 157.105,81.4036 166,67.5C 175.256,57.9685 186.256,54.9685 199,58.5C 209.807,44.3921 220.974,30.5588 232.5,17C 243.371,7.89579 255.705,2.06246 269.5,-0.5 Z M 271.5,20.5 C 282.724,19.2842 293.391,21.1175 303.5,26C 330.707,46.2066 354.207,70.0399 374,97.5C 386.753,116.666 398.753,136.333 410,156.5C 429.535,189.37 456.202,214.703 490,232.5C 490.667,241.833 490.667,251.167 490,260.5C 429.311,221.425 382.645,169.758 350,105.5C 344.217,94.717 336.051,86.217 325.5,80C 314.319,75.1267 302.985,74.4601 291.5,78C 275.333,65.1667 259.167,52.3333 243,39.5C 245.301,34.8523 248.801,31.019 253.5,28C 259.328,24.7883 265.328,22.2883 271.5,20.5 Z M 228.5,55.5 C 244.246,67.0722 259.58,79.2388 274.5,92C 270.546,96.7423 266.713,101.576 263,106.5C 248,94.5 233,82.5 218,70.5C 217.333,69.8333 217.333,69.1667 218,68.5C 221.713,64.2923 225.213,59.959 228.5,55.5 Z M 188.5,77.5 C 190.924,78.0305 193.257,78.8638 195.5,80C 215.546,96.3812 235.88,112.381 256.5,128C 263.425,134.492 263.092,140.492 255.5,146C 252.697,146.755 250.03,146.422 247.5,145C 225.378,127.88 203.545,110.38 182,92.5C 178.921,85.1137 181.087,80.1137 188.5,77.5 Z"/></g>
<g><path style="opacity:0.913" fill="#000000" d="M 146.5,124.5 C 157.49,122.992 162.324,127.658 161,138.5C 157.833,143 154,146.833 149.5,150C 138.064,153.562 132.898,149.396 134,137.5C 137.642,132.691 141.809,128.358 146.5,124.5 Z"/></g>
<g><path style="opacity:0.905" fill="#000000" d="M 181.5,148.5 C 193.463,149.552 196.963,155.552 192,166.5C 189.518,169.949 186.685,173.116 183.5,176C 171.559,179.396 166.392,174.896 168,162.5C 171.384,156.618 175.884,151.952 181.5,148.5 Z"/></g>
<g><path style="opacity:0.905" fill="#000000" d="M 109.5,157.5 C 121.78,156.424 126.28,161.758 123,173.5C 119.799,177.036 116.299,180.203 112.5,183C 106.286,185.877 101.12,184.71 97,179.5C 95.0312,175.351 95.3645,171.351 98,167.5C 102.026,164.302 105.859,160.968 109.5,157.5 Z"/></g>
<g><path style="opacity:0.911" fill="#000000" d="M 210.5,174.5 C 218.736,173.111 223.736,176.444 225.5,184.5C 223.887,189.728 221.72,194.728 219,199.5C 214.454,203.749 209.287,204.582 203.5,202C 198.408,196.107 198.241,189.941 203,183.5C 204.642,179.7 207.142,176.7 210.5,174.5 Z"/></g>
<g><path style="opacity:0.916" fill="#000000" d="M 148.5,188.5 C 158.943,186.782 163.776,191.115 163,201.5C 160.346,206.633 156.846,211.133 152.5,215C 140.559,218.396 135.392,213.896 137,201.5C 139.984,196.353 143.818,192.02 148.5,188.5 Z"/></g>
<g><path style="opacity:0.908" fill="#000000" d="M 186.5,218.5 C 195.072,217.106 200.072,220.606 201.5,229C 200.293,234.248 198.127,239.081 195,243.5C 190.454,247.749 185.287,248.582 179.5,246C 177.224,243.615 175.891,240.781 175.5,237.5C 177.405,230.007 181.072,223.674 186.5,218.5 Z"/></g>
<g><path style="opacity:0.949" fill="#000000" d="M 152.5,511.5 C 141.167,511.5 129.833,511.5 118.5,511.5C 83.9458,508.638 54.1125,495.305 29,471.5C 5.74052,444.491 -3.59281,413.157 1,377.5C 2.71064,365.209 5.54397,353.209 9.5,341.5C 3.55938,310.429 0.726045,279.096 1,247.5C 9.03341,231.912 20.8667,228.079 36.5,236C 49.9382,247.436 62.7715,259.602 75,272.5C 114.528,254.24 154.195,253.907 194,271.5C 206.562,258.269 219.728,245.769 233.5,234C 245.869,226.822 257.036,228.322 267,238.5C 268.275,240.717 269.275,243.051 270,245.5C 270.314,277.842 267.147,309.842 260.5,341.5C 269.498,363.317 272.664,385.983 270,409.5C 265.427,445.181 247.927,472.348 217.5,491C 197.124,502.336 175.458,509.17 152.5,511.5 Z M 246.5,250.5 C 247.5,250.5 248.5,250.5 249.5,250.5C 249.318,271.309 247.484,291.976 244,312.5C 235.314,300.98 225.147,290.98 213.5,282.5C 223.956,271.137 234.956,260.47 246.5,250.5 Z M 22.5,252.5 C 34.411,261.741 45.411,272.074 55.5,283.5C 44.842,291.992 35.342,301.658 27,312.5C 22.9708,292.622 21.4708,272.622 22.5,252.5 Z M 122.5,279.5 C 170.65,276.824 207.816,295.491 234,335.5C 251.905,367.782 254.238,401.115 241,435.5C 226.887,460.935 205.721,477.435 177.5,485C 167.013,487.931 156.346,489.764 145.5,490.5C 145.172,485.125 145.505,479.792 146.5,474.5C 156.868,468.381 166.035,460.714 174,451.5C 183.4,433.938 180.233,419.104 164.5,407C 162.043,405.438 159.376,404.438 156.5,404C 142.167,403.333 127.833,403.333 113.5,404C 95.2932,410.574 88.1266,423.407 92,442.5C 93.1395,446.112 94.8061,449.446 97,452.5C 104.819,461.145 113.652,468.478 123.5,474.5C 124.495,479.792 124.828,485.125 124.5,490.5C 91.0059,488.665 62.8393,475.665 40,451.5C 22.874,427.782 17.2073,401.449 23,372.5C 36.1215,319.874 69.2882,288.874 122.5,279.5 Z M 91.5,344.5 C 104.174,344.349 107.507,349.849 101.5,361C 90.431,364.891 85.5977,361.058 87,349.5C 88.025,347.313 89.525,345.646 91.5,344.5 Z M 171.5,344.5 C 184.174,344.349 187.507,349.849 181.5,361C 170.431,364.891 165.598,361.058 167,349.5C 168.025,347.313 169.525,345.646 171.5,344.5 Z M 121.5,423.5 C 131.898,423.101 142.232,423.601 152.5,425C 157.202,427.429 159.035,431.262 158,436.5C 152.833,443 147,448.833 140.5,454C 137.634,455.457 134.634,455.79 131.5,455C 127.833,452 124.167,449 120.5,446C 116.908,443.079 114.075,439.579 112,435.5C 111.663,428.675 114.83,424.675 121.5,423.5 Z"/></g>
<g><path style="opacity:0.949" fill="#000000" d="M 87.5,323.5 C 114.645,321.811 127.145,334.478 125,361.5C 118.491,378.844 105.991,386.011 87.5,383C 70.1556,376.491 62.9889,363.991 66,345.5C 69.3501,334.318 76.5167,326.984 87.5,323.5 Z M 91.5,344.5 C 89.525,345.646 88.025,347.313 87,349.5C 85.5977,361.058 90.431,364.891 101.5,361C 107.507,349.849 104.174,344.349 91.5,344.5 Z"/></g>
<g><path style="opacity:0.949" fill="#000000" d="M 167.5,323.5 C 194.645,321.811 207.145,334.478 205,361.5C 198.491,378.844 185.991,386.011 167.5,383C 150.156,376.491 142.989,363.991 146,345.5C 149.35,334.318 156.517,326.984 167.5,323.5 Z M 171.5,344.5 C 169.525,345.646 168.025,347.313 167,349.5C 165.598,361.058 170.431,364.891 181.5,361C 187.507,349.849 184.174,344.349 171.5,344.5 Z"/></g>
</svg>
