<?xml version="1.0" encoding="UTF-8"?>
<!DOCTYPE svg PUBLIC "-//W3C//DTD SVG 1.1//EN" "http://www.w3.org/Graphics/SVG/1.1/DTD/svg11.dtd">
<svg xmlns="http://www.w3.org/2000/svg" version="1.1" width="512px" height="512px" style="shape-rendering:geometricPrecision; text-rendering:geometricPrecision; image-rendering:optimizeQuality; fill-rule:evenodd; clip-rule:evenodd" xmlns:xlink="http://www.w3.org/1999/xlink">
<g><path style="opacity:0.942" fill="#000000" d="M 284.5,28.5 C 317.9,26.3594 342.234,40.026 357.5,69.5C 391.506,82.3612 407.673,107.028 406,143.5C 398.733,181.265 375.9,201.598 337.5,204.5C 329.643,203.926 321.976,202.759 314.5,201C 267.5,254.667 220.5,308.333 173.5,362C 187.064,391.613 183.064,418.613 161.5,443C 139.799,462.175 115.133,467.175 87.5,458C 70.2837,450.783 57.6171,438.783 49.5,422C 13.3988,408.32 -2.76786,382.154 1,343.5C 10.8229,305.024 35.6563,286.19 75.5,287C 80.9774,287.536 86.3107,288.703 91.5,290.5C 138.795,237.248 185.628,183.582 232,129.5C 218.359,97.0384 224.192,68.5384 249.5,44C 260.01,36.0752 271.677,30.9086 284.5,28.5 Z M 286.5,49.5 C 304.984,47.9948 320.151,54.3281 332,68.5C 335.387,74.7799 338.887,80.9466 342.5,87C 375.606,95.7207 389.106,116.887 383,150.5C 374.738,170.918 359.571,181.918 337.5,183.5C 329.849,182.92 322.515,181.087 315.5,178C 312.036,177.183 308.702,177.517 305.5,179C 254.333,237.5 203.167,296 152,354.5C 150.517,357.702 150.183,361.036 151,364.5C 166.771,391.31 162.604,414.477 138.5,434C 115.279,446.221 94.4459,443.054 76,424.5C 72.221,419.277 69.221,413.61 67,407.5C 65.8333,406.333 64.6667,405.167 63.5,404C 31.5636,395.625 18.0636,375.125 23,342.5C 30.481,320.703 45.8144,309.037 69,307.5C 77.9587,308.407 86.6254,310.407 95,313.5C 98.7349,313.799 101.735,312.466 104,309.5C 153.96,251.205 204.293,193.205 255,135.5C 255.422,133.645 255.922,131.811 256.5,130C 253.833,124 251.167,118 248.5,112C 242.083,85.2415 251.083,65.5749 275.5,53C 279.254,51.6912 282.921,50.5246 286.5,49.5 Z"/></g>
<g><path style="opacity:0.947" fill="#000000" d="M 375.5,231.5 C 427.087,229.705 466.587,250.371 494,293.5C 511.347,324.849 515.347,357.849 506,392.5C 488.249,444.578 452.083,474.411 397.5,482C 350.587,485.119 312.753,468.285 284,431.5C 257.817,392.502 253.15,351.169 270,307.5C 291.303,262.931 326.47,237.598 375.5,231.5 Z M 376.5,252.5 C 393.819,251.581 410.486,254.414 426.5,261C 432.365,263.426 437.698,266.593 442.5,270.5C 418.245,290.053 390.911,295.886 360.5,288C 348.451,284.48 337.784,278.646 328.5,270.5C 342.969,260.344 358.969,254.344 376.5,252.5 Z M 310.5,284.5 C 351.728,316.985 395.728,321.151 442.5,297C 448.191,293.487 453.524,289.487 458.5,285C 459.167,284.333 459.833,284.333 460.5,285C 485.469,311.592 494.469,342.925 487.5,379C 483.163,398.846 473.996,416.013 460,430.5C 424.944,400.892 385.777,394.058 342.5,410C 331.486,414.834 321.486,421.168 312.5,429C 311.833,429.667 311.167,429.667 310.5,429C 285.961,402.718 276.795,371.885 283,336.5C 287.212,316.404 296.378,299.071 310.5,284.5 Z M 376.5,422.5 C 401.645,421.16 423.979,428.327 443.5,444C 404.836,467.333 366.169,467.333 327.5,444C 341.945,432.442 358.279,425.275 376.5,422.5 Z"/></g>
</svg>
