<?xml version="1.0" encoding="UTF-8"?>
<!DOCTYPE svg PUBLIC "-//W3C//DTD SVG 1.1//EN" "http://www.w3.org/Graphics/SVG/1.1/DTD/svg11.dtd">
<svg xmlns="http://www.w3.org/2000/svg" version="1.1" width="512px" height="512px" style="shape-rendering:geometricPrecision; text-rendering:geometricPrecision; image-rendering:optimizeQuality; fill-rule:evenodd; clip-rule:evenodd" xmlns:xlink="http://www.w3.org/1999/xlink">
<g><path style="opacity:0.938" fill="#000000" d="M 138.5,14.5 C 178.835,14.3333 219.168,14.5 259.5,15C 267.435,17.2684 272.268,22.4351 274,30.5C 274.499,35.4889 274.666,40.4889 274.5,45.5C 295.503,45.3334 316.503,45.5 337.5,46C 351.813,48.9808 360.98,57.4808 365,71.5C 365.5,106.165 365.667,140.832 365.5,175.5C 417.777,185.06 453.277,214.726 472,264.5C 487.55,318.464 476.05,365.63 437.5,406C 417.045,424.726 393.045,436.226 365.5,440.5C 365.666,450.506 365.5,460.506 365,470.5C 360.98,484.519 351.813,493.019 337.5,496C 245.167,496.667 152.833,496.667 60.5,496C 46.2164,493.051 37.0497,484.551 33,470.5C 32.3333,337.5 32.3333,204.5 33,71.5C 36.3279,59.5053 43.8279,51.3387 55.5,47C 78.1221,45.5535 100.789,45.0535 123.5,45.5C 123.13,39.0749 123.63,32.7416 125,26.5C 127.833,20.4933 132.333,16.4933 138.5,14.5 Z M 142.5,31.5 C 180.168,31.3333 217.835,31.5 255.5,32C 256,32.5 256.5,33 257,33.5C 257.667,47.1667 257.667,60.8333 257,74.5C 256.5,75 256,75.5 255.5,76C 217.833,76.6667 180.167,76.6667 142.5,76C 142,75.5 141.5,75 141,74.5C 140.333,60.8333 140.333,47.1667 141,33.5C 141.717,32.9558 142.217,32.2891 142.5,31.5 Z M 62.5,62.5 C 82.8333,62.5 103.167,62.5 123.5,62.5C 123.13,68.9251 123.63,75.2584 125,81.5C 127.167,86.3333 130.667,89.8333 135.5,92C 156.605,93.1503 177.772,93.6503 199,93.5C 220.228,93.6503 241.395,93.1503 262.5,92C 267.333,89.8333 270.833,86.3333 273,81.5C 274.317,75.2425 274.817,68.9092 274.5,62.5C 294.836,62.3334 315.169,62.5 335.5,63C 341.87,64.4356 346.037,68.2689 348,74.5C 348.5,107.498 348.667,140.498 348.5,173.5C 316.702,173.156 288.036,182.322 262.5,201C 228.415,201.013 194.415,201.68 160.5,203C 157.735,205.995 156.902,209.495 158,213.5C 159.109,215.815 160.943,217.315 163.5,218C 190.167,218.333 216.833,218.667 243.5,219C 231.076,233.507 221.743,249.841 215.5,268C 197.833,268.333 180.167,268.667 162.5,269C 157.931,271.541 156.431,275.375 158,280.5C 158.935,283.102 160.768,284.602 163.5,285C 179.497,285.5 195.497,285.667 211.5,285.5C 209.254,302.177 209.588,318.844 212.5,335.5C 195.83,335.333 179.163,335.5 162.5,336C 157.391,339.366 156.224,343.866 159,349.5C 159.903,350.701 161.069,351.535 162.5,352C 180.833,352.333 199.167,352.667 217.5,353C 224.31,371.633 234.643,387.966 248.5,402C 220.167,402.333 191.833,402.667 163.5,403C 158.076,405.017 156.242,408.85 158,414.5C 158.465,415.931 159.299,417.097 160.5,418C 196.749,419.321 233.082,419.987 269.5,420C 293.442,435.737 319.775,443.237 348.5,442.5C 348.666,450.84 348.5,459.173 348,467.5C 346.037,473.731 341.87,477.564 335.5,479C 244.5,479.667 153.5,479.667 62.5,479C 56.0901,477.554 51.9234,473.721 50,467.5C 49.3333,336.5 49.3333,205.5 50,74.5C 52.1683,68.347 56.335,64.347 62.5,62.5 Z M 335.5,190.5 C 384.27,189.461 421.436,209.461 447,250.5C 464.027,283.93 466.027,318.263 453,353.5C 428.606,403.624 388.439,427.457 332.5,425C 278.97,416.805 244.803,386.639 230,334.5C 220.591,280.021 238.758,237.521 284.5,207C 300.496,197.944 317.496,192.444 335.5,190.5 Z M 342.5,248.5 C 350.261,249.47 353.928,253.97 353.5,262C 353.836,268.851 350.836,273.351 344.5,275.5C 338.154,273.326 335.154,268.826 335.5,262C 335.356,256.119 337.689,251.619 342.5,248.5 Z M 284.5,264.5 C 292.99,266.593 297.657,272.093 298.5,281C 295.628,292.515 290.128,294.015 282,285.5C 276.646,277.499 277.48,270.499 284.5,264.5 Z M 401.5,264.5 C 407.51,265.348 410.51,268.848 410.5,275C 410.062,283.395 405.895,288.895 398,291.5C 393.202,289.766 390.702,286.266 390.5,281C 391.082,273.309 394.749,267.809 401.5,264.5 Z M 340.5,314.5 C 360.34,314.164 375.173,322.498 385,339.5C 388.172,346.327 388.839,353.327 387,360.5C 384.422,361.141 381.755,361.475 379,361.5C 367.539,360.047 356.039,359.047 344.5,358.5C 330.512,359.833 316.512,360.666 302.5,361C 299.555,350.718 301.389,341.218 308,332.5C 316.68,322.414 327.513,316.414 340.5,314.5 Z"/></g>
<g><path style="opacity:0.915" fill="#000000" d="M 129.5,120.5 C 138.207,120.037 141.707,124.037 140,132.5C 130.53,142.971 120.697,153.137 110.5,163C 107.634,164.457 104.634,164.79 101.5,164C 95.0311,158.532 88.8644,152.699 83,146.5C 78.0626,136.193 81.2293,131.36 92.5,132C 96.9819,135.647 101.315,139.481 105.5,143.5C 113.547,135.784 121.547,128.118 129.5,120.5 Z"/></g>
<g><path style="opacity:0.936" fill="#000000" d="M 162.5,134.5 C 213.501,134.333 264.501,134.5 315.5,135C 319.788,138.771 320.621,143.271 318,148.5C 316.829,149.893 315.329,150.727 313.5,151C 263.5,151.667 213.5,151.667 163.5,151C 157.456,148.068 155.956,143.568 159,137.5C 160.145,136.364 161.312,135.364 162.5,134.5 Z"/></g>
<g><path style="opacity:0.915" fill="#000000" d="M 130.5,187.5 C 138.019,188.176 141.186,192.176 140,199.5C 130.197,210.304 120.03,220.804 109.5,231C 106.036,231.817 102.702,231.483 99.5,230C 92.9679,223.802 86.8013,217.302 81,210.5C 79.9261,199.947 84.4261,196.447 94.5,200C 98.0152,203.682 101.682,207.182 105.5,210.5C 113.603,202.389 121.936,194.723 130.5,187.5 Z"/></g>
<g><path style="opacity:0.932" fill="#000000" d="M 338.5,231.5 C 355.277,230.43 365.777,238.097 370,254.5C 372.364,268.41 368.198,279.91 357.5,289C 337.675,296.504 324.841,290.004 319,269.5C 315.982,251.602 322.482,238.936 338.5,231.5 Z M 342.5,248.5 C 337.689,251.619 335.356,256.119 335.5,262C 335.154,268.826 338.154,273.326 344.5,275.5C 350.836,273.351 353.836,268.851 353.5,262C 353.928,253.97 350.261,249.47 342.5,248.5 Z"/></g>
<g><path style="opacity:0.93" fill="#000000" d="M 282.5,247.5 C 302.621,249.456 313.621,260.622 315.5,281C 312.589,303.94 300.255,311.94 278.5,305C 261.694,292.994 257.527,277.494 266,258.5C 270.07,252.581 275.57,248.915 282.5,247.5 Z M 284.5,264.5 C 277.48,270.499 276.646,277.499 282,285.5C 290.128,294.015 295.628,292.515 298.5,281C 297.657,272.093 292.99,266.593 284.5,264.5 Z"/></g>
<g><path style="opacity:0.934" fill="#000000" d="M 400.5,247.5 C 418.018,248.185 427.018,257.352 427.5,275C 426.054,293.941 416.054,305.107 397.5,308.5C 382.281,305.773 374.281,296.607 373.5,281C 374.725,263.299 383.725,252.133 400.5,247.5 Z M 401.5,264.5 C 394.749,267.809 391.082,273.309 390.5,281C 390.702,286.266 393.202,289.766 398,291.5C 405.895,288.895 410.062,283.395 410.5,275C 410.51,268.848 407.51,265.348 401.5,264.5 Z"/></g>
<g><path style="opacity:0.921" fill="#000000" d="M 127.5,255.5 C 137.157,253.992 141.323,257.992 140,267.5C 129.833,277.667 119.667,287.833 109.5,298C 106.036,298.817 102.702,298.483 99.5,297C 93.6667,291.167 87.8333,285.333 82,279.5C 78.9262,270.46 82.0929,265.96 91.5,266C 96.6029,269.266 101.27,273.1 105.5,277.5C 113.188,270.479 120.521,263.146 127.5,255.5 Z"/></g>
<g><path style="opacity:0.932" fill="#000000" d="M 341.5,297.5 C 369.736,297.683 389.903,310.35 402,335.5C 406.024,346.081 406.358,356.748 403,367.5C 398.169,376.331 390.669,379.998 380.5,378.5C 368.497,377.499 356.497,376.499 344.5,375.5C 332.485,376.335 320.485,377.335 308.5,378.5C 294.608,380.149 286.441,374.149 284,360.5C 283.337,329.488 297.837,309.322 327.5,300C 332.294,299.098 336.961,298.265 341.5,297.5 Z M 340.5,314.5 C 327.513,316.414 316.68,322.414 308,332.5C 301.389,341.218 299.555,350.718 302.5,361C 316.512,360.666 330.512,359.833 344.5,358.5C 356.039,359.047 367.539,360.047 379,361.5C 381.755,361.475 384.422,361.141 387,360.5C 388.839,353.327 388.172,346.327 385,339.5C 375.173,322.498 360.34,314.164 340.5,314.5 Z"/></g>
<g><path style="opacity:0.911" fill="#000000" d="M 128.5,322.5 C 137.604,321.438 141.438,325.438 140,334.5C 130.5,345.333 120.333,355.5 109.5,365C 106.036,365.817 102.702,365.483 99.5,364C 92.9679,357.802 86.8013,351.302 81,344.5C 80.3776,335.115 84.5443,331.615 93.5,334C 97.3333,337.833 101.167,341.667 105,345.5C 112.728,337.604 120.562,329.937 128.5,322.5 Z"/></g>
<g><path style="opacity:0.909" fill="#000000" d="M 128.5,389.5 C 137.658,388.491 141.492,392.491 140,401.5C 130.132,413.035 119.299,423.535 107.5,433C 105.087,433.484 102.754,433.15 100.5,432C 93.6349,425.469 87.1349,418.636 81,411.5C 80.3523,402.142 84.519,398.642 93.5,401C 97.3333,404.833 101.167,408.667 105,412.5C 112.728,404.604 120.562,396.937 128.5,389.5 Z"/></g>
</svg>
